<svg xmlns="http://www.w3.org/2000/svg" xmlns:xlink="http://www.w3.org/1999/xlink" width="1024" zoomAndPan="magnify" viewBox="0 0 768 767.999994" height="1024" preserveAspectRatio="xMidYMid meet" version="1.0"><path fill="#333333" d="M 493.632812 561.597656 L 681.738281 749.640625 C 700.363281 768.257812 730.609375 768.25 749.230469 749.628906 C 767.851562 730.996094 767.84375 700.753906 749.222656 682.128906 L 561.242188 494.21875 C 599.058594 442.78125 621.410156 379.265625 621.410156 310.5625 C 621.410156 139.15625 482.253906 0 310.847656 0 C 139.441406 0 0.285156 139.15625 0.285156 310.5625 C 0.285156 481.96875 139.441406 621.125 310.847656 621.125 C 379.15625 621.125 442.335938 599.027344 493.632812 561.597656 Z M 310.847656 95.453125 C 429.570312 95.453125 525.960938 191.839844 525.960938 310.5625 C 525.960938 429.285156 429.570312 525.675781 310.847656 525.675781 C 192.125 525.675781 95.738281 429.285156 95.738281 310.5625 C 95.738281 191.839844 192.125 95.453125 310.847656 95.453125 Z M 310.847656 95.453125 " fill-opacity="1" fill-rule="evenodd"/></svg>