<svg xmlns="http://www.w3.org/2000/svg" xmlns:xlink="http://www.w3.org/1999/xlink" width="1024" zoomAndPan="magnify" viewBox="0 0 768 767.999994" height="1024" preserveAspectRatio="xMidYMid meet" version="1.0"><path fill="#333333" d="M 383.832031 69.246094 C 486.308594 69.246094 498.425781 69.582031 538.980469 71.433594 C 576.335938 73.113281 596.699219 79.339844 610.328125 84.726562 C 628.164062 91.625 640.953125 100.039062 654.414062 113.5 C 667.878906 126.960938 676.121094 139.75 683.191406 157.589844 C 688.40625 171.050781 694.632812 191.410156 696.484375 228.9375 C 698.335938 269.488281 698.671875 281.605469 698.671875 384.085938 C 698.671875 486.5625 698.335938 498.679688 696.484375 539.230469 C 694.800781 576.589844 688.574219 596.949219 683.191406 610.582031 C 676.289062 628.417969 667.878906 641.207031 654.414062 654.667969 C 640.953125 668.128906 628.164062 676.375 610.328125 683.441406 C 596.867188 688.660156 576.503906 694.886719 538.980469 696.734375 C 498.425781 698.585938 486.308594 698.921875 383.832031 698.921875 C 281.351562 698.921875 269.238281 698.585938 228.683594 696.734375 C 191.328125 695.054688 170.964844 688.828125 157.335938 683.441406 C 139.5 676.542969 126.710938 668.128906 113.246094 654.667969 C 99.785156 641.207031 91.539062 628.417969 84.472656 610.582031 C 79.257812 597.117188 73.03125 576.757812 71.179688 539.230469 C 69.328125 498.679688 68.992188 486.5625 68.992188 384.085938 C 68.992188 281.605469 69.328125 269.488281 71.179688 228.9375 C 72.863281 191.578125 79.089844 171.21875 84.472656 157.589844 C 91.371094 139.75 99.785156 126.960938 113.246094 113.5 C 126.710938 100.039062 139.5 91.792969 157.335938 84.726562 C 170.796875 79.507812 191.160156 73.28125 228.683594 71.433594 C 269.238281 69.582031 281.351562 69.246094 383.832031 69.246094 M 383.832031 0.0859375 C 279.503906 0.0859375 266.546875 0.589844 225.488281 2.441406 C 184.597656 4.289062 156.664062 10.855469 132.261719 20.277344 C 107.023438 30.035156 85.652344 43.164062 64.28125 64.53125 C 43.078125 85.902344 29.953125 107.273438 20.191406 132.515625 C 10.769531 156.914062 4.207031 184.847656 2.355469 225.738281 C 0.503906 266.628906 0 279.753906 0 383.914062 C 0 488.246094 0.503906 501.203125 2.355469 542.261719 C 4.207031 583.152344 10.769531 611.085938 20.191406 635.484375 C 29.953125 660.726562 43.078125 682.097656 64.449219 703.46875 C 85.820312 724.835938 107.191406 737.964844 132.429688 747.722656 C 156.832031 757.144531 184.765625 763.710938 225.65625 765.558594 C 266.546875 767.410156 279.671875 767.914062 384 767.914062 C 488.328125 767.914062 501.285156 767.410156 542.34375 765.558594 C 583.234375 763.710938 611.167969 757.144531 635.570312 747.722656 C 660.808594 737.964844 682.179688 724.835938 703.550781 703.46875 C 724.921875 682.097656 738.046875 660.726562 747.808594 635.484375 C 757.230469 611.085938 763.792969 583.152344 765.644531 542.261719 C 767.496094 501.371094 768 488.246094 768 383.914062 C 768 279.585938 767.496094 266.628906 765.644531 225.570312 C 763.792969 184.679688 757.230469 156.746094 747.808594 132.347656 C 738.046875 107.105469 724.921875 85.734375 703.550781 64.363281 C 682.179688 42.992188 660.808594 29.867188 635.570312 20.109375 C 611.167969 10.683594 583.234375 4.121094 542.34375 2.273438 C 501.285156 0.589844 488.160156 0.0859375 383.832031 0.0859375 " fill-opacity="1" fill-rule="nonzero"/><path fill="#333333" d="M 383.832031 186.867188 C 274.957031 186.867188 186.785156 275.042969 186.785156 383.914062 C 186.785156 492.789062 275.128906 581.132812 384 581.132812 C 492.871094 581.132812 581.214844 492.957031 581.214844 383.914062 C 581.046875 275.042969 492.703125 186.867188 383.832031 186.867188 M 383.832031 511.972656 C 313.15625 511.972656 255.945312 454.757812 255.945312 384.085938 C 255.945312 313.410156 313.15625 256.195312 383.832031 256.195312 C 454.507812 256.195312 511.71875 313.410156 511.71875 384.085938 C 511.886719 454.589844 454.507812 511.972656 383.832031 511.972656 " fill-opacity="1" fill-rule="nonzero"/><path fill="#333333" d="M 634.894531 179.128906 C 634.894531 204.535156 614.199219 225.234375 588.789062 225.234375 C 563.378906 225.234375 542.683594 204.535156 542.683594 179.128906 C 542.683594 153.71875 563.378906 133.019531 588.789062 133.019531 C 614.199219 133.019531 634.894531 153.550781 634.894531 179.128906 " fill-opacity="1" fill-rule="nonzero"/></svg>