<svg xmlns="http://www.w3.org/2000/svg" xmlns:xlink="http://www.w3.org/1999/xlink" width="1024" zoomAndPan="magnify" viewBox="0 0 768 767.999994" height="1024" preserveAspectRatio="xMidYMid meet" version="1.0"><path fill="#333333" d="M 758.613281 143.957031 C 756.613281 141.46875 754.367188 139.230469 751.863281 137.246094 C 749.363281 135.257812 746.671875 133.578125 743.792969 132.195312 C 740.910156 130.816406 737.914062 129.769531 734.800781 129.0625 C 731.683594 128.355469 728.527344 128 725.332031 128 L 185.472656 128 L 170.070312 35.625 C 169.863281 34.394531 169.601562 33.171875 169.289062 31.964844 C 168.976562 30.753906 168.609375 29.5625 168.191406 28.382812 C 167.773438 27.207031 167.304688 26.050781 166.785156 24.914062 C 166.265625 23.777344 165.695312 22.664062 165.078125 21.578125 C 164.460938 20.492188 163.796875 19.4375 163.085938 18.410156 C 162.375 17.378906 161.621094 16.386719 160.824219 15.425781 C 160.027344 14.460938 159.1875 13.539062 158.308594 12.648438 C 157.429688 11.761719 156.515625 10.914062 155.5625 10.105469 C 154.609375 9.300781 153.621094 8.535156 152.601562 7.816406 C 151.578125 7.09375 150.527344 6.417969 149.449219 5.789062 C 148.371094 5.160156 147.265625 4.582031 146.132812 4.050781 C 145.003906 3.519531 143.851562 3.039062 142.675781 2.609375 C 141.503906 2.179688 140.3125 1.800781 139.109375 1.476562 C 137.902344 1.148438 136.683594 0.875 135.453125 0.660156 C 134.222656 0.441406 132.984375 0.273438 131.742188 0.164062 C 130.496094 0.0546875 129.25 0 128 0 L 42.667969 0 C 41.269531 0 39.875 0.0703125 38.484375 0.207031 C 37.09375 0.34375 35.714844 0.546875 34.34375 0.820312 C 32.972656 1.09375 31.617188 1.429688 30.28125 1.835938 C 28.945312 2.242188 27.628906 2.714844 26.339844 3.246094 C 25.046875 3.78125 23.785156 4.378906 22.554688 5.039062 C 21.320312 5.695312 20.125 6.414062 18.960938 7.191406 C 17.800781 7.96875 16.679688 8.796875 15.597656 9.683594 C 14.519531 10.570312 13.484375 11.507812 12.496094 12.496094 C 11.507812 13.484375 10.570312 14.519531 9.683594 15.597656 C 8.796875 16.679688 7.96875 17.800781 7.191406 18.960938 C 6.414062 20.125 5.695312 21.320312 5.039062 22.554688 C 4.378906 23.785156 3.78125 25.046875 3.246094 26.339844 C 2.714844 27.628906 2.242188 28.945312 1.835938 30.28125 C 1.429688 31.617188 1.09375 32.972656 0.820312 34.34375 C 0.546875 35.714844 0.34375 37.09375 0.207031 38.484375 C 0.0703125 39.875 0 41.269531 0 42.667969 C 0 44.0625 0.0703125 45.457031 0.207031 46.847656 C 0.34375 48.238281 0.546875 49.621094 0.820312 50.992188 C 1.09375 52.359375 1.429688 53.714844 1.835938 55.050781 C 2.242188 56.390625 2.714844 57.703125 3.246094 58.996094 C 3.78125 60.285156 4.378906 61.546875 5.039062 62.78125 C 5.695312 64.011719 6.414062 65.210938 7.191406 66.371094 C 7.96875 67.53125 8.796875 68.652344 9.683594 69.734375 C 10.570312 70.8125 11.507812 71.847656 12.496094 72.835938 C 13.484375 73.824219 14.519531 74.761719 15.597656 75.648438 C 16.679688 76.535156 17.800781 77.367188 18.960938 78.144531 C 20.125 78.917969 21.320312 79.636719 22.554688 80.296875 C 23.785156 80.953125 25.046875 81.550781 26.339844 82.085938 C 27.628906 82.621094 28.945312 83.089844 30.28125 83.496094 C 31.617188 83.902344 32.972656 84.242188 34.34375 84.511719 C 35.714844 84.785156 37.09375 84.992188 38.484375 85.128906 C 39.875 85.265625 41.269531 85.332031 42.667969 85.332031 L 91.863281 85.332031 L 161.664062 504.148438 C 161.929688 505.761719 162.230469 507.367188 162.5625 508.96875 C 162.898438 510.566406 163.269531 512.15625 163.675781 513.742188 C 164.082031 515.324219 164.519531 516.894531 164.996094 518.460938 C 165.472656 520.023438 165.980469 521.574219 166.523438 523.117188 C 167.066406 524.65625 167.644531 526.1875 168.253906 527.703125 C 168.867188 529.21875 169.507812 530.71875 170.1875 532.207031 C 170.863281 533.695312 171.574219 535.164062 172.3125 536.621094 C 173.054688 538.078125 173.828125 539.515625 174.636719 540.9375 C 175.441406 542.359375 176.277344 543.761719 177.144531 545.148438 C 178.011719 546.53125 178.90625 547.898438 179.835938 549.242188 C 180.761719 550.589844 181.71875 551.914062 182.703125 553.214844 C 183.691406 554.519531 184.703125 555.800781 185.746094 557.058594 C 186.789062 558.316406 187.859375 559.554688 188.953125 560.765625 C 190.050781 561.976562 191.175781 563.164062 192.324219 564.324219 C 193.472656 565.488281 194.644531 566.621094 195.84375 567.734375 C 197.042969 568.84375 198.265625 569.925781 199.515625 570.980469 C 200.761719 572.039062 202.03125 573.066406 203.320312 574.066406 C 204.613281 575.066406 205.929688 576.039062 207.261719 576.980469 C 208.597656 577.921875 209.953125 578.835938 211.328125 579.71875 C 212.703125 580.601562 214.097656 581.453125 215.511719 582.273438 C 216.921875 583.09375 218.351562 583.886719 219.800781 584.644531 C 221.246094 585.402344 222.710938 586.125 224.191406 586.820312 C 225.671875 587.515625 227.164062 588.175781 228.671875 588.800781 C 230.183594 589.429688 231.703125 590.023438 233.238281 590.585938 C 234.773438 591.144531 236.320312 591.671875 237.878906 592.164062 C 239.4375 592.65625 241.003906 593.113281 242.582031 593.539062 C 244.160156 593.960938 245.746094 594.351562 247.34375 594.703125 C 248.9375 595.054688 250.539062 595.375 252.152344 595.65625 C 253.761719 595.941406 255.375 596.1875 256.996094 596.398438 C 258.617188 596.609375 260.238281 596.785156 261.867188 596.925781 C 263.496094 597.066406 265.125 597.167969 266.757812 597.238281 C 268.390625 597.304688 270.023438 597.335938 271.660156 597.332031 L 584.789062 597.332031 C 587.9375 597.347656 591.078125 597.226562 594.214844 596.972656 C 597.351562 596.71875 600.472656 596.335938 603.578125 595.816406 C 606.679688 595.296875 609.757812 594.644531 612.804688 593.863281 C 615.855469 593.085938 618.863281 592.175781 621.835938 591.136719 C 624.804688 590.101562 627.726562 588.941406 630.601562 587.652344 C 633.472656 586.367188 636.285156 584.960938 639.039062 583.4375 C 641.792969 581.914062 644.476562 580.273438 647.089844 578.519531 C 649.703125 576.765625 652.234375 574.90625 654.691406 572.9375 C 657.144531 570.96875 659.511719 568.898438 661.789062 566.726562 C 664.070312 564.554688 666.253906 562.292969 668.339844 559.9375 C 670.425781 557.578125 672.40625 555.140625 674.285156 552.613281 C 676.164062 550.089844 677.929688 547.488281 679.589844 544.8125 C 681.246094 542.136719 682.785156 539.398438 684.210938 536.589844 C 685.632812 533.785156 686.9375 530.921875 688.117188 528.003906 C 689.296875 525.085938 690.351562 522.125 691.277344 519.117188 C 692.207031 516.109375 693.003906 513.070312 693.675781 509.996094 L 767.019531 179.925781 C 767.710938 176.804688 768.046875 173.644531 768.027344 170.449219 C 768.011719 167.253906 767.636719 164.097656 766.910156 160.984375 C 766.183594 157.871094 765.117188 154.878906 763.71875 152.003906 C 762.316406 149.132812 760.617188 146.449219 758.613281 143.957031 Z M 758.613281 143.957031 " fill-opacity="1" fill-rule="nonzero"/><path fill="#333333" d="M 640 704 C 640 705.046875 639.972656 706.09375 639.921875 707.140625 C 639.871094 708.1875 639.792969 709.230469 639.691406 710.273438 C 639.589844 711.316406 639.460938 712.355469 639.308594 713.390625 C 639.152344 714.425781 638.972656 715.457031 638.769531 716.484375 C 638.566406 717.511719 638.335938 718.535156 638.082031 719.550781 C 637.828125 720.566406 637.546875 721.574219 637.242188 722.578125 C 636.941406 723.582031 636.613281 724.574219 636.257812 725.5625 C 635.90625 726.546875 635.527344 727.523438 635.128906 728.492188 C 634.726562 729.460938 634.304688 730.417969 633.855469 731.363281 C 633.40625 732.308594 632.9375 733.246094 632.441406 734.167969 C 631.949219 735.09375 631.433594 736.003906 630.894531 736.902344 C 630.355469 737.800781 629.796875 738.6875 629.214844 739.554688 C 628.632812 740.425781 628.027344 741.285156 627.40625 742.125 C 626.78125 742.964844 626.136719 743.792969 625.472656 744.601562 C 624.808594 745.410156 624.125 746.203125 623.421875 746.980469 C 622.71875 747.753906 621.996094 748.515625 621.253906 749.253906 C 620.515625 749.996094 619.757812 750.71875 618.980469 751.421875 C 618.203125 752.125 617.410156 752.808594 616.601562 753.472656 C 615.792969 754.136719 614.964844 754.78125 614.125 755.40625 C 613.285156 756.027344 612.425781 756.632812 611.554688 757.214844 C 610.6875 757.796875 609.800781 758.355469 608.902344 758.894531 C 608.003906 759.433594 607.09375 759.949219 606.167969 760.441406 C 605.246094 760.9375 604.308594 761.40625 603.363281 761.855469 C 602.417969 762.304688 601.460938 762.726562 600.492188 763.128906 C 599.523438 763.527344 598.546875 763.90625 597.5625 764.257812 C 596.574219 764.613281 595.582031 764.941406 594.578125 765.246094 C 593.574219 765.546875 592.566406 765.828125 591.550781 766.082031 C 590.535156 766.335938 589.511719 766.566406 588.484375 766.769531 C 587.457031 766.972656 586.425781 767.152344 585.390625 767.308594 C 584.355469 767.460938 583.316406 767.589844 582.273438 767.691406 C 581.230469 767.792969 580.1875 767.871094 579.140625 767.921875 C 578.09375 767.972656 577.046875 768 576 768 C 574.953125 768 573.90625 767.972656 572.859375 767.921875 C 571.8125 767.871094 570.769531 767.792969 569.726562 767.691406 C 568.683594 767.589844 567.644531 767.460938 566.609375 767.308594 C 565.574219 767.152344 564.542969 766.972656 563.515625 766.769531 C 562.488281 766.566406 561.464844 766.335938 560.449219 766.082031 C 559.433594 765.828125 558.425781 765.546875 557.421875 765.246094 C 556.417969 764.941406 555.425781 764.613281 554.4375 764.257812 C 553.453125 763.90625 552.476562 763.527344 551.507812 763.128906 C 550.539062 762.726562 549.582031 762.304688 548.636719 761.855469 C 547.691406 761.40625 546.753906 760.9375 545.832031 760.441406 C 544.90625 759.949219 543.996094 759.433594 543.097656 758.894531 C 542.199219 758.355469 541.3125 757.796875 540.445312 757.214844 C 539.574219 756.632812 538.714844 756.027344 537.875 755.40625 C 537.035156 754.78125 536.207031 754.136719 535.398438 753.472656 C 534.589844 752.808594 533.796875 752.125 533.019531 751.421875 C 532.242188 750.71875 531.484375 749.996094 530.746094 749.253906 C 530.003906 748.515625 529.28125 747.753906 528.578125 746.980469 C 527.875 746.203125 527.191406 745.410156 526.527344 744.601562 C 525.863281 743.792969 525.21875 742.964844 524.59375 742.125 C 523.96875 741.285156 523.367188 740.425781 522.785156 739.554688 C 522.203125 738.6875 521.644531 737.800781 521.105469 736.902344 C 520.566406 736.003906 520.050781 735.09375 519.558594 734.167969 C 519.0625 733.246094 518.59375 732.308594 518.144531 731.363281 C 517.695312 730.417969 517.273438 729.460938 516.871094 728.492188 C 516.472656 727.523438 516.09375 726.546875 515.742188 725.5625 C 515.386719 724.574219 515.058594 723.582031 514.753906 722.578125 C 514.453125 721.574219 514.171875 720.566406 513.917969 719.550781 C 513.664062 718.535156 513.433594 717.511719 513.230469 716.484375 C 513.023438 715.457031 512.847656 714.425781 512.691406 713.390625 C 512.539062 712.355469 512.410156 711.316406 512.308594 710.273438 C 512.207031 709.230469 512.128906 708.1875 512.078125 707.140625 C 512.027344 706.09375 512 705.046875 512 704 C 512 702.953125 512.027344 701.90625 512.078125 700.859375 C 512.128906 699.8125 512.207031 698.769531 512.308594 697.726562 C 512.410156 696.683594 512.539062 695.644531 512.691406 694.609375 C 512.847656 693.574219 513.023438 692.542969 513.230469 691.515625 C 513.433594 690.488281 513.664062 689.464844 513.917969 688.449219 C 514.171875 687.433594 514.453125 686.425781 514.753906 685.421875 C 515.058594 684.417969 515.386719 683.425781 515.742188 682.4375 C 516.09375 681.453125 516.472656 680.476562 516.871094 679.507812 C 517.273438 678.539062 517.695312 677.582031 518.144531 676.636719 C 518.59375 675.691406 519.0625 674.753906 519.558594 673.832031 C 520.050781 672.90625 520.566406 671.996094 521.105469 671.097656 C 521.644531 670.199219 522.203125 669.3125 522.785156 668.445312 C 523.367188 667.574219 523.96875 666.714844 524.59375 665.875 C 525.21875 665.035156 525.863281 664.207031 526.527344 663.398438 C 527.191406 662.589844 527.875 661.796875 528.578125 661.019531 C 529.28125 660.246094 530.003906 659.484375 530.746094 658.746094 C 531.484375 658.003906 532.242188 657.28125 533.019531 656.578125 C 533.796875 655.875 534.589844 655.191406 535.398438 654.527344 C 536.207031 653.863281 537.035156 653.21875 537.875 652.59375 C 538.714844 651.972656 539.574219 651.367188 540.445312 650.785156 C 541.3125 650.203125 542.199219 649.644531 543.097656 649.105469 C 543.996094 648.566406 544.90625 648.050781 545.832031 647.558594 C 546.753906 647.0625 547.691406 646.59375 548.636719 646.144531 C 549.582031 645.695312 550.539062 645.273438 551.507812 644.871094 C 552.476562 644.472656 553.453125 644.09375 554.4375 643.742188 C 555.425781 643.386719 556.417969 643.058594 557.421875 642.757812 C 558.425781 642.453125 559.433594 642.171875 560.449219 641.917969 C 561.464844 641.664062 562.488281 641.433594 563.515625 641.230469 C 564.542969 641.027344 565.574219 640.847656 566.609375 640.691406 C 567.644531 640.539062 568.683594 640.410156 569.726562 640.308594 C 570.769531 640.207031 571.8125 640.128906 572.859375 640.078125 C 573.90625 640.027344 574.953125 640 576 640 C 577.046875 640 578.09375 640.027344 579.140625 640.078125 C 580.1875 640.128906 581.230469 640.207031 582.273438 640.308594 C 583.316406 640.410156 584.355469 640.539062 585.390625 640.691406 C 586.425781 640.847656 587.457031 641.027344 588.484375 641.230469 C 589.511719 641.433594 590.535156 641.664062 591.550781 641.917969 C 592.566406 642.171875 593.574219 642.453125 594.578125 642.757812 C 595.582031 643.058594 596.574219 643.386719 597.5625 643.742188 C 598.546875 644.09375 599.523438 644.472656 600.492188 644.871094 C 601.460938 645.273438 602.417969 645.695312 603.363281 646.144531 C 604.308594 646.59375 605.246094 647.0625 606.167969 647.558594 C 607.09375 648.050781 608.003906 648.566406 608.902344 649.105469 C 609.800781 649.644531 610.6875 650.203125 611.554688 650.785156 C 612.425781 651.367188 613.285156 651.972656 614.125 652.59375 C 614.964844 653.21875 615.792969 653.863281 616.601562 654.527344 C 617.410156 655.191406 618.203125 655.875 618.980469 656.578125 C 619.757812 657.28125 620.515625 658.003906 621.253906 658.746094 C 621.996094 659.484375 622.71875 660.246094 623.421875 661.019531 C 624.125 661.796875 624.808594 662.589844 625.472656 663.398438 C 626.136719 664.207031 626.78125 665.035156 627.40625 665.875 C 628.027344 666.714844 628.632812 667.574219 629.214844 668.445312 C 629.796875 669.3125 630.355469 670.199219 630.894531 671.097656 C 631.433594 671.996094 631.949219 672.90625 632.441406 673.832031 C 632.9375 674.753906 633.40625 675.691406 633.855469 676.636719 C 634.304688 677.582031 634.726562 678.539062 635.128906 679.507812 C 635.527344 680.476562 635.90625 681.453125 636.257812 682.4375 C 636.613281 683.425781 636.941406 684.417969 637.242188 685.421875 C 637.546875 686.425781 637.828125 687.433594 638.082031 688.449219 C 638.335938 689.464844 638.566406 690.488281 638.769531 691.515625 C 638.972656 692.542969 639.152344 693.574219 639.308594 694.609375 C 639.460938 695.644531 639.589844 696.683594 639.691406 697.726562 C 639.792969 698.769531 639.871094 699.8125 639.921875 700.859375 C 639.972656 701.90625 640 702.953125 640 704 Z M 640 704 " fill-opacity="1" fill-rule="nonzero"/><path fill="#333333" d="M 341.332031 704 C 341.332031 705.046875 341.308594 706.09375 341.257812 707.140625 C 341.203125 708.1875 341.128906 709.230469 341.023438 710.273438 C 340.921875 711.316406 340.792969 712.355469 340.640625 713.390625 C 340.488281 714.425781 340.308594 715.457031 340.105469 716.484375 C 339.898438 717.511719 339.667969 718.535156 339.414062 719.550781 C 339.160156 720.566406 338.882812 721.574219 338.578125 722.578125 C 338.273438 723.582031 337.945312 724.574219 337.59375 725.5625 C 337.238281 726.546875 336.863281 727.523438 336.460938 728.492188 C 336.0625 729.460938 335.636719 730.417969 335.1875 731.363281 C 334.742188 732.308594 334.269531 733.246094 333.777344 734.167969 C 333.28125 735.09375 332.765625 736.003906 332.226562 736.902344 C 331.691406 737.800781 331.128906 738.6875 330.546875 739.554688 C 329.964844 740.425781 329.363281 741.285156 328.738281 742.125 C 328.113281 742.964844 327.46875 743.792969 326.804688 744.601562 C 326.140625 745.410156 325.457031 746.203125 324.753906 746.980469 C 324.050781 747.753906 323.328125 748.515625 322.589844 749.253906 C 321.847656 749.996094 321.089844 750.71875 320.3125 751.421875 C 319.535156 752.125 318.746094 752.808594 317.933594 753.472656 C 317.125 754.136719 316.300781 754.78125 315.457031 755.40625 C 314.617188 756.027344 313.761719 756.632812 312.890625 757.214844 C 312.019531 757.796875 311.132812 758.355469 310.234375 758.894531 C 309.335938 759.433594 308.425781 759.949219 307.503906 760.441406 C 306.578125 760.9375 305.644531 761.40625 304.695312 761.855469 C 303.75 762.304688 302.792969 762.726562 301.824219 763.128906 C 300.855469 763.527344 299.878906 763.90625 298.894531 764.257812 C 297.90625 764.613281 296.914062 764.941406 295.910156 765.246094 C 294.910156 765.546875 293.898438 765.828125 292.882812 766.082031 C 291.867188 766.335938 290.847656 766.566406 289.820312 766.769531 C 288.792969 766.972656 287.761719 767.152344 286.722656 767.308594 C 285.6875 767.460938 284.648438 767.589844 283.605469 767.691406 C 282.5625 767.792969 281.519531 767.871094 280.472656 767.921875 C 279.425781 767.972656 278.378906 768 277.332031 768 C 276.285156 768 275.238281 767.972656 274.191406 767.921875 C 273.148438 767.871094 272.101562 767.792969 271.058594 767.691406 C 270.019531 767.589844 268.980469 767.460938 267.941406 767.308594 C 266.90625 767.152344 265.875 766.972656 264.847656 766.769531 C 263.820312 766.566406 262.796875 766.335938 261.78125 766.082031 C 260.765625 765.828125 259.757812 765.546875 258.753906 765.246094 C 257.753906 764.941406 256.757812 764.613281 255.773438 764.257812 C 254.785156 763.90625 253.808594 763.527344 252.839844 763.128906 C 251.875 762.726562 250.917969 762.304688 249.96875 761.855469 C 249.023438 761.40625 248.085938 760.9375 247.164062 760.441406 C 246.238281 759.949219 245.328125 759.433594 244.429688 758.894531 C 243.53125 758.355469 242.648438 757.796875 241.777344 757.214844 C 240.90625 756.632812 240.050781 756.027344 239.207031 755.40625 C 238.367188 754.78125 237.542969 754.136719 236.730469 753.472656 C 235.921875 752.808594 235.128906 752.125 234.355469 751.421875 C 233.578125 750.71875 232.820312 749.996094 232.078125 749.253906 C 231.335938 748.515625 230.617188 747.753906 229.914062 746.980469 C 229.210938 746.203125 228.523438 745.410156 227.859375 744.601562 C 227.195312 743.792969 226.550781 742.964844 225.929688 742.125 C 225.304688 741.285156 224.699219 740.425781 224.121094 739.554688 C 223.539062 738.6875 222.976562 737.800781 222.4375 736.902344 C 221.898438 736.003906 221.382812 735.09375 220.890625 734.167969 C 220.398438 733.246094 219.925781 732.308594 219.476562 731.363281 C 219.03125 730.417969 218.605469 729.460938 218.203125 728.492188 C 217.804688 727.523438 217.425781 726.546875 217.074219 725.5625 C 216.722656 724.574219 216.394531 723.582031 216.089844 722.578125 C 215.785156 721.574219 215.503906 720.566406 215.25 719.550781 C 214.996094 718.535156 214.765625 717.511719 214.5625 716.484375 C 214.359375 715.457031 214.179688 714.425781 214.027344 713.390625 C 213.871094 712.355469 213.746094 711.316406 213.640625 710.273438 C 213.539062 709.230469 213.460938 708.1875 213.410156 707.140625 C 213.359375 706.09375 213.332031 705.046875 213.332031 704 C 213.332031 702.953125 213.359375 701.90625 213.410156 700.859375 C 213.460938 699.8125 213.539062 698.769531 213.640625 697.726562 C 213.746094 696.683594 213.871094 695.644531 214.027344 694.609375 C 214.179688 693.574219 214.359375 692.542969 214.5625 691.515625 C 214.765625 690.488281 214.996094 689.464844 215.25 688.449219 C 215.503906 687.433594 215.785156 686.425781 216.089844 685.421875 C 216.394531 684.417969 216.722656 683.425781 217.074219 682.4375 C 217.425781 681.453125 217.804688 680.476562 218.203125 679.507812 C 218.605469 678.539062 219.03125 677.582031 219.476562 676.636719 C 219.925781 675.691406 220.398438 674.753906 220.890625 673.832031 C 221.382812 672.90625 221.898438 671.996094 222.4375 671.097656 C 222.976562 670.199219 223.539062 669.3125 224.121094 668.445312 C 224.699219 667.574219 225.304688 666.714844 225.929688 665.875 C 226.550781 665.035156 227.195312 664.207031 227.859375 663.398438 C 228.523438 662.589844 229.210938 661.796875 229.914062 661.019531 C 230.617188 660.246094 231.335938 659.484375 232.078125 658.746094 C 232.820312 658.003906 233.578125 657.28125 234.355469 656.578125 C 235.128906 655.875 235.921875 655.191406 236.730469 654.527344 C 237.542969 653.863281 238.367188 653.21875 239.207031 652.59375 C 240.050781 651.972656 240.90625 651.367188 241.777344 650.785156 C 242.648438 650.203125 243.53125 649.644531 244.429688 649.105469 C 245.328125 648.566406 246.238281 648.050781 247.164062 647.558594 C 248.085938 647.0625 249.023438 646.59375 249.96875 646.144531 C 250.917969 645.695312 251.875 645.273438 252.839844 644.871094 C 253.808594 644.472656 254.785156 644.09375 255.773438 643.742188 C 256.757812 643.386719 257.753906 643.058594 258.753906 642.757812 C 259.757812 642.453125 260.765625 642.171875 261.78125 641.917969 C 262.796875 641.664062 263.820312 641.433594 264.847656 641.230469 C 265.875 641.027344 266.90625 640.847656 267.941406 640.691406 C 268.980469 640.539062 270.019531 640.410156 271.058594 640.308594 C 272.101562 640.207031 273.148438 640.128906 274.191406 640.078125 C 275.238281 640.027344 276.285156 640 277.332031 640 C 278.378906 640 279.425781 640.027344 280.472656 640.078125 C 281.519531 640.128906 282.5625 640.207031 283.605469 640.308594 C 284.648438 640.410156 285.6875 640.539062 286.722656 640.691406 C 287.761719 640.847656 288.792969 641.027344 289.820312 641.230469 C 290.847656 641.433594 291.867188 641.664062 292.882812 641.917969 C 293.898438 642.171875 294.910156 642.453125 295.910156 642.757812 C 296.914062 643.058594 297.90625 643.386719 298.894531 643.742188 C 299.878906 644.09375 300.855469 644.472656 301.824219 644.871094 C 302.792969 645.273438 303.75 645.695312 304.695312 646.144531 C 305.644531 646.59375 306.578125 647.0625 307.503906 647.558594 C 308.425781 648.050781 309.335938 648.566406 310.234375 649.105469 C 311.132812 649.644531 312.019531 650.203125 312.890625 650.785156 C 313.761719 651.367188 314.617188 651.972656 315.457031 652.59375 C 316.300781 653.21875 317.125 653.863281 317.933594 654.527344 C 318.746094 655.191406 319.535156 655.875 320.3125 656.578125 C 321.089844 657.28125 321.847656 658.003906 322.589844 658.746094 C 323.328125 659.484375 324.050781 660.246094 324.753906 661.019531 C 325.457031 661.796875 326.140625 662.589844 326.804688 663.398438 C 327.46875 664.207031 328.113281 665.035156 328.738281 665.875 C 329.363281 666.714844 329.964844 667.574219 330.546875 668.445312 C 331.128906 669.3125 331.691406 670.199219 332.226562 671.097656 C 332.765625 671.996094 333.28125 672.90625 333.777344 673.832031 C 334.269531 674.753906 334.742188 675.691406 335.1875 676.636719 C 335.636719 677.582031 336.0625 678.539062 336.460938 679.507812 C 336.863281 680.476562 337.238281 681.453125 337.59375 682.4375 C 337.945312 683.425781 338.273438 684.417969 338.578125 685.421875 C 338.882812 686.425781 339.160156 687.433594 339.414062 688.449219 C 339.667969 689.464844 339.898438 690.488281 340.105469 691.515625 C 340.308594 692.542969 340.488281 693.574219 340.640625 694.609375 C 340.792969 695.644531 340.921875 696.683594 341.023438 697.726562 C 341.128906 698.769531 341.203125 699.8125 341.257812 700.859375 C 341.308594 701.90625 341.332031 702.953125 341.332031 704 Z M 341.332031 704 " fill-opacity="1" fill-rule="nonzero"/></svg>