<svg xmlns="http://www.w3.org/2000/svg" xmlns:xlink="http://www.w3.org/1999/xlink"    zoomAndPan="magnify" viewBox="0 0 768 767.999994"   preserveAspectRatio="xMidYMid meet" version="1.0"><path fill="#1b9df0" d="M 576 384 C 576 387.140625 575.921875 390.28125 575.769531 393.421875 C 575.613281 396.558594 575.382812 399.691406 575.074219 402.820312 C 574.765625 405.945312 574.382812 409.0625 573.921875 412.171875 C 573.460938 415.28125 572.921875 418.375 572.3125 421.457031 C 571.699219 424.539062 571.007812 427.605469 570.246094 430.652344 C 569.484375 433.699219 568.644531 436.726562 567.734375 439.734375 C 566.820312 442.742188 565.835938 445.722656 564.777344 448.683594 C 563.71875 451.640625 562.585938 454.570312 561.386719 457.476562 C 560.183594 460.378906 558.910156 463.25 557.566406 466.089844 C 556.222656 468.929688 554.808594 471.738281 553.328125 474.507812 C 551.847656 477.28125 550.300781 480.011719 548.683594 482.707031 C 547.070312 485.402344 545.386719 488.058594 543.640625 490.667969 C 541.894531 493.28125 540.085938 495.851562 538.214844 498.375 C 536.34375 500.898438 534.410156 503.375 532.417969 505.804688 C 530.425781 508.234375 528.371094 510.609375 526.261719 512.9375 C 524.152344 515.265625 521.984375 517.542969 519.765625 519.765625 C 517.542969 521.988281 515.265625 524.152344 512.9375 526.261719 C 510.609375 528.371094 508.234375 530.425781 505.804688 532.417969 C 503.375 534.410156 500.898438 536.34375 498.375 538.214844 C 495.851562 540.085938 493.28125 541.894531 490.667969 543.640625 C 488.058594 545.386719 485.402344 547.070312 482.707031 548.683594 C 480.011719 550.300781 477.277344 551.847656 474.507812 553.328125 C 471.738281 554.808594 468.929688 556.222656 466.089844 557.566406 C 463.25 558.910156 460.378906 560.183594 457.476562 561.386719 C 454.570312 562.585938 451.640625 563.71875 448.683594 564.777344 C 445.722656 565.835938 442.742188 566.820312 439.734375 567.734375 C 436.726562 568.644531 433.699219 569.484375 430.652344 570.246094 C 427.605469 571.007812 424.539062 571.699219 421.457031 572.3125 C 418.375 572.921875 415.28125 573.460938 412.171875 573.921875 C 409.0625 574.382812 405.945312 574.765625 402.820312 575.074219 C 399.691406 575.382812 396.558594 575.613281 393.421875 575.769531 C 390.28125 575.921875 387.140625 576 384 576 C 380.859375 576 377.71875 575.921875 374.578125 575.769531 C 371.441406 575.613281 368.308594 575.382812 365.179688 575.074219 C 362.054688 574.765625 358.9375 574.382812 355.828125 573.921875 C 352.71875 573.460938 349.625 572.921875 346.542969 572.3125 C 343.460938 571.699219 340.394531 571.007812 337.347656 570.246094 C 334.300781 569.484375 331.273438 568.644531 328.265625 567.734375 C 325.257812 566.820312 322.277344 565.835938 319.316406 564.777344 C 316.359375 563.71875 313.429688 562.585938 310.523438 561.386719 C 307.621094 560.183594 304.75 558.910156 301.910156 557.566406 C 299.070312 556.222656 296.261719 554.808594 293.492188 553.328125 C 290.71875 551.847656 287.988281 550.300781 285.292969 548.683594 C 282.597656 547.070312 279.941406 545.386719 277.332031 543.640625 C 274.71875 541.894531 272.148438 540.085938 269.625 538.214844 C 267.101562 536.34375 264.625 534.410156 262.195312 532.417969 C 259.765625 530.425781 257.390625 528.371094 255.0625 526.261719 C 252.734375 524.152344 250.457031 521.988281 248.234375 519.765625 C 246.011719 517.542969 243.847656 515.265625 241.738281 512.9375 C 239.628906 510.609375 237.574219 508.234375 235.582031 505.804688 C 233.589844 503.375 231.65625 500.898438 229.785156 498.375 C 227.914062 495.851562 226.105469 493.28125 224.359375 490.667969 C 222.613281 488.058594 220.929688 485.402344 219.316406 482.707031 C 217.699219 480.011719 216.152344 477.28125 214.671875 474.507812 C 213.191406 471.738281 211.777344 468.929688 210.433594 466.089844 C 209.089844 463.25 207.816406 460.378906 206.613281 457.476562 C 205.414062 454.570312 204.28125 451.640625 203.222656 448.683594 C 202.164062 445.722656 201.179688 442.742188 200.265625 439.734375 C 199.355469 436.726562 198.515625 433.699219 197.753906 430.652344 C 196.992188 427.605469 196.300781 424.539062 195.6875 421.457031 C 195.078125 418.375 194.539062 415.28125 194.078125 412.171875 C 193.617188 409.0625 193.234375 405.945312 192.925781 402.820312 C 192.617188 399.691406 192.386719 396.558594 192.230469 393.421875 C 192.078125 390.28125 192 387.140625 192 384 C 192 380.859375 192.078125 377.71875 192.230469 374.578125 C 192.386719 371.441406 192.617188 368.308594 192.925781 365.179688 C 193.234375 362.054688 193.617188 358.9375 194.078125 355.828125 C 194.539062 352.71875 195.078125 349.625 195.6875 346.542969 C 196.300781 343.460938 196.992188 340.394531 197.753906 337.347656 C 198.515625 334.300781 199.355469 331.273438 200.265625 328.265625 C 201.179688 325.257812 202.164062 322.277344 203.222656 319.316406 C 204.28125 316.359375 205.414062 313.429688 206.613281 310.523438 C 207.816406 307.621094 209.089844 304.75 210.433594 301.910156 C 211.777344 299.070312 213.191406 296.261719 214.671875 293.492188 C 216.152344 290.71875 217.699219 287.988281 219.316406 285.292969 C 220.929688 282.597656 222.613281 279.941406 224.359375 277.332031 C 226.105469 274.71875 227.914062 272.148438 229.785156 269.625 C 231.65625 267.101562 233.589844 264.625 235.582031 262.195312 C 237.574219 259.765625 239.628906 257.390625 241.738281 255.0625 C 243.847656 252.734375 246.011719 250.457031 248.234375 248.234375 C 250.457031 246.011719 252.734375 243.847656 255.0625 241.738281 C 257.390625 239.628906 259.765625 237.574219 262.195312 235.582031 C 264.625 233.589844 267.101562 231.65625 269.625 229.785156 C 272.148438 227.914062 274.71875 226.105469 277.332031 224.359375 C 279.941406 222.613281 282.597656 220.929688 285.292969 219.316406 C 287.988281 217.699219 290.71875 216.152344 293.492188 214.671875 C 296.261719 213.191406 299.070312 211.777344 301.910156 210.433594 C 304.75 209.089844 307.621094 207.816406 310.523438 206.613281 C 313.429688 205.414062 316.359375 204.28125 319.316406 203.222656 C 322.277344 202.164062 325.257812 201.179688 328.265625 200.265625 C 331.273438 199.355469 334.300781 198.515625 337.347656 197.753906 C 340.394531 196.992188 343.460938 196.300781 346.542969 195.6875 C 349.625 195.078125 352.71875 194.539062 355.828125 194.078125 C 358.9375 193.617188 362.054688 193.234375 365.179688 192.925781 C 368.308594 192.617188 371.441406 192.386719 374.578125 192.230469 C 377.71875 192.078125 380.859375 192 384 192 C 387.140625 192 390.28125 192.078125 393.421875 192.230469 C 396.558594 192.386719 399.691406 192.617188 402.820312 192.925781 C 405.945312 193.234375 409.0625 193.617188 412.171875 194.078125 C 415.28125 194.539062 418.375 195.078125 421.457031 195.6875 C 424.539062 196.300781 427.605469 196.992188 430.652344 197.753906 C 433.699219 198.515625 436.726562 199.355469 439.734375 200.265625 C 442.742188 201.179688 445.722656 202.164062 448.683594 203.222656 C 451.640625 204.28125 454.570312 205.414062 457.476562 206.613281 C 460.378906 207.816406 463.25 209.089844 466.089844 210.433594 C 468.929688 211.777344 471.738281 213.191406 474.507812 214.671875 C 477.277344 216.152344 480.011719 217.699219 482.707031 219.316406 C 485.402344 220.929688 488.058594 222.613281 490.667969 224.359375 C 493.28125 226.105469 495.851562 227.914062 498.375 229.785156 C 500.898438 231.65625 503.375 233.589844 505.804688 235.582031 C 508.234375 237.574219 510.609375 239.628906 512.9375 241.738281 C 515.265625 243.847656 517.542969 246.011719 519.765625 248.234375 C 521.984375 250.457031 524.152344 252.734375 526.261719 255.0625 C 528.371094 257.390625 530.425781 259.765625 532.417969 262.195312 C 534.410156 264.625 536.34375 267.101562 538.214844 269.625 C 540.085938 272.148438 541.894531 274.71875 543.640625 277.332031 C 545.386719 279.941406 547.070312 282.597656 548.683594 285.292969 C 550.300781 287.988281 551.847656 290.71875 553.328125 293.492188 C 554.808594 296.261719 556.222656 299.070312 557.566406 301.910156 C 558.910156 304.75 560.183594 307.621094 561.386719 310.523438 C 562.585938 313.429688 563.71875 316.359375 564.777344 319.316406 C 565.835938 322.277344 566.820312 325.257812 567.734375 328.265625 C 568.644531 331.273438 569.480469 334.300781 570.246094 337.347656 C 571.007812 340.394531 571.699219 343.460938 572.3125 346.542969 C 572.921875 349.625 573.460938 352.71875 573.921875 355.828125 C 574.382812 358.9375 574.765625 362.054688 575.074219 365.179688 C 575.382812 368.308594 575.613281 371.441406 575.769531 374.578125 C 575.921875 377.71875 576 380.859375 576 384 Z M 576 384 " fill-opacity="1" fill-rule="nonzero"/><path fill="#ffffff" d="M 348.863281 485.28125 C 434.015625 485.28125 480.574219 414.71875 480.574219 353.566406 C 480.574219 351.550781 480.574219 349.535156 480.480469 347.617188 C 489.503906 341.089844 497.375 332.929688 503.617188 323.617188 C 495.359375 327.265625 486.433594 329.761719 477.023438 330.910156 C 486.625 325.152344 493.921875 316.128906 497.375 305.28125 C 488.449219 310.558594 478.558594 314.398438 468 316.511719 C 459.550781 307.488281 447.550781 301.921875 434.207031 301.921875 C 408.671875 301.921875 387.9375 322.65625 387.9375 348.191406 C 387.9375 351.839844 388.320312 355.390625 389.183594 358.753906 C 350.6875 356.832031 316.609375 338.398438 293.761719 310.367188 C 289.824219 317.183594 287.519531 325.152344 287.519531 333.601562 C 287.519531 349.632812 295.679688 363.839844 308.160156 372.097656 C 300.574219 371.902344 293.472656 369.792969 287.230469 366.335938 C 287.230469 366.527344 287.230469 366.71875 287.230469 366.910156 C 287.230469 389.375 303.167969 408 324.382812 412.320312 C 320.542969 413.375 316.414062 413.953125 312.191406 413.953125 C 309.214844 413.953125 306.335938 413.664062 303.457031 413.089844 C 309.3125 431.519531 326.398438 444.863281 346.65625 445.246094 C 330.816406 457.632812 310.847656 465.023438 289.152344 465.023438 C 285.40625 465.023438 281.761719 464.832031 278.113281 464.351562 C 298.367188 477.601562 322.753906 485.28125 348.863281 485.28125 " fill-opacity="1" fill-rule="nonzero"/></svg>