<svg xmlns="http://www.w3.org/2000/svg" xmlns:xlink="http://www.w3.org/1999/xlink" width="1024" zoomAndPan="magnify" viewBox="0 0 768 767.999994" height="1024" preserveAspectRatio="xMidYMid meet" version="1.0"><path fill="#7322c1" d="M 384 0 C 172.800781 0 0 172.800781 0 384 C 0 595.199219 172.800781 768 384 768 C 595.199219 768 768 595.199219 768 384 C 768 172.800781 595.199219 0 384 0 Z M 537.601562 422.398438 L 422.398438 422.398438 L 422.398438 537.601562 C 422.398438 560.640625 407.039062 576 384 576 C 360.960938 576 345.601562 560.640625 345.601562 537.601562 L 345.601562 422.398438 L 230.398438 422.398438 C 207.359375 422.398438 192 407.039062 192 384 C 192 360.960938 207.359375 345.601562 230.398438 345.601562 L 345.601562 345.601562 L 345.601562 230.398438 C 345.601562 207.359375 360.960938 192 384 192 C 407.039062 192 422.398438 207.359375 422.398438 230.398438 L 422.398438 345.601562 L 537.601562 345.601562 C 560.640625 345.601562 576 360.960938 576 384 C 576 407.039062 560.640625 422.398438 537.601562 422.398438 Z M 537.601562 422.398438 " fill-opacity="1" fill-rule="nonzero"/></svg>