<svg xmlns="http://www.w3.org/2000/svg" xmlns:xlink="http://www.w3.org/1999/xlink" width="1024" zoomAndPan="magnify" viewBox="0 0 768 767.999994" height="1024" preserveAspectRatio="xMidYMid meet" version="1.0"><path fill="#333333" d="M 768 384 C 768 596.160156 596.160156 768 384 768 C 171.839844 768 0 596.160156 0 384 C 0 171.839844 171.839844 0 384 0 C 596.160156 0 768 171.839844 768 384 Z M 313.726562 586.558594 C 484.03125 586.558594 577.152344 445.441406 577.152344 323.136719 C 577.152344 319.105469 577.152344 315.070312 576.960938 311.230469 C 595.007812 298.175781 610.75 281.855469 623.230469 263.230469 C 606.71875 270.527344 588.863281 275.519531 570.046875 277.824219 C 589.246094 266.304688 603.839844 248.257812 610.75 226.558594 C 592.894531 237.121094 573.121094 244.800781 552 249.023438 C 535.105469 230.976562 511.105469 219.839844 484.414062 219.839844 C 433.34375 219.839844 391.871094 261.3125 391.871094 312.382812 C 391.871094 319.679688 392.640625 326.785156 394.367188 333.503906 C 317.375 329.664062 249.214844 292.800781 203.519531 236.734375 C 195.648438 250.367188 191.039062 266.304688 191.039062 283.199219 C 191.039062 315.265625 207.359375 343.679688 232.320312 360.191406 C 217.152344 359.808594 202.945312 355.585938 190.464844 348.671875 C 190.464844 349.054688 190.464844 349.441406 190.464844 349.824219 C 190.464844 394.753906 222.335938 432 264.769531 440.640625 C 257.089844 442.753906 248.832031 443.902344 240.382812 443.902344 C 234.433594 443.902344 228.671875 443.328125 222.910156 442.175781 C 234.625 479.039062 268.800781 505.726562 309.3125 506.496094 C 277.632812 531.265625 237.695312 546.046875 194.304688 546.046875 C 186.816406 546.046875 179.519531 545.664062 172.222656 544.703125 C 212.734375 571.199219 261.503906 586.558594 313.726562 586.558594 " fill-opacity="1" fill-rule="nonzero"/></svg>