<svg xmlns="http://www.w3.org/2000/svg" xmlns:xlink="http://www.w3.org/1999/xlink" width="1024" zoomAndPan="magnify" viewBox="0 0 768 767.999994" height="1024" preserveAspectRatio="xMidYMid meet" version="1.0"><defs><clipPath id="id1"><path d="M 2.625 0 L 765.746094 0 L 765.746094 767.632812 L 2.625 767.632812 Z M 2.625 0 " clip-rule="nonzero"/></clipPath></defs><g clip-path="url(#id1)"><path fill="#e84545" d="M 384.695312 553.804688 C 409.367188 554.144531 429.117188 574.375 428.773438 598.976562 C 428.773438 599.453125 428.773438 599.933594 428.773438 600.339844 C 429.867188 625.011719 410.800781 645.855469 386.199219 646.949219 C 361.53125 648.039062 340.621094 628.976562 339.527344 604.304688 C 339.457031 603.007812 339.457031 601.707031 339.527344 600.339844 C 338.5 575.742188 357.636719 554.898438 382.238281 553.871094 C 383.125 553.804688 383.878906 553.804688 384.695312 553.804688 Z M 382.238281 142.484375 C 383.398438 142.414062 384.628906 142.414062 385.789062 142.484375 C 413.398438 143.304688 435.0625 166.402344 434.308594 194.007812 C 434.308594 194.488281 434.171875 195.035156 434.171875 195.511719 L 418.796875 462.640625 C 417.703125 481.640625 401.371094 496.128906 382.375 495.035156 C 364.949219 494.078125 351.007812 480.136719 349.980469 462.640625 L 334.332031 195.511719 C 332.625 167.972656 353.671875 144.257812 381.210938 142.550781 C 381.691406 142.550781 382.167969 142.484375 382.648438 142.484375 Z M 374.378906 0.136719 C 166.976562 5.46875 1.871094 175.558594 2.625 383.03125 C 0.914062 593.78125 170.324219 765.921875 381.074219 767.632812 C 591.828125 769.339844 763.96875 599.863281 765.675781 389.179688 C 765.675781 387.128906 765.675781 385.078125 765.675781 383.03125 C 766.566406 172.347656 596.269531 0.820312 385.652344 0.0664062 C 381.964844 0 378.203125 0.0664062 374.515625 0.136719 L 374.378906 0.136719 " fill-opacity="1" fill-rule="nonzero"/></g></svg>