<svg xmlns="http://www.w3.org/2000/svg" xmlns:xlink="http://www.w3.org/1999/xlink" width="1024" zoomAndPan="magnify" viewBox="0 0 768 767.999994" height="1024" preserveAspectRatio="xMidYMid meet" version="1.0"><path fill="#333333" d="M 281.253906 570.867188 C 272.84375 570.867188 266.007812 577.710938 266.007812 586.113281 C 266.007812 594.523438 272.84375 601.359375 281.253906 601.359375 C 289.664062 601.359375 296.5 594.523438 296.5 586.113281 C 296.5 577.710938 289.664062 570.867188 281.253906 570.867188 " fill-opacity="1" fill-rule="nonzero"/><path fill="#333333" d="M 506.742188 570.867188 C 498.332031 570.867188 491.496094 577.710938 491.496094 586.113281 C 491.496094 594.523438 498.332031 601.359375 506.742188 601.359375 C 515.148438 601.359375 521.984375 594.523438 521.984375 586.113281 C 521.984375 577.710938 515.148438 570.867188 506.742188 570.867188 " fill-opacity="1" fill-rule="nonzero"/><path fill="#333333" d="M 260.65625 453.398438 C 262.460938 468.097656 274.933594 478.742188 290.324219 478.742188 L 495.699219 478.742188 C 509.160156 478.742188 521.382812 468.671875 524.761719 454.800781 L 560.859375 305.546875 L 242.347656 305.546875 L 260.65625 453.398438 " fill-opacity="1" fill-rule="nonzero"/><path fill="#333333" d="M 604.835938 290.542969 L 562.871094 464.054688 C 555.253906 495.304688 527.011719 517.957031 495.699219 517.957031 L 290.324219 517.957031 C 255.394531 517.957031 225.910156 492.261719 221.738281 458.191406 L 201.523438 294.9375 C 200.125 292.246094 199.339844 289.183594 199.339844 285.9375 C 199.339844 284.378906 199.523438 282.863281 199.863281 281.410156 L 193.167969 226.640625 C 191.492188 213.183594 179.898438 202.609375 166.773438 202.609375 L 127.449219 202.609375 C 116.621094 202.609375 107.839844 193.828125 107.839844 183.003906 C 107.839844 172.175781 116.621094 163.394531 127.449219 163.394531 L 166.773438 163.394531 C 199.863281 163.394531 227.941406 188.519531 232.085938 221.839844 L 237.523438 266.332031 L 585.78125 266.332031 C 591.789062 266.332031 597.46875 269.089844 601.183594 273.808594 C 604.902344 278.539062 606.25 284.707031 604.835938 290.542969 Z M 506.742188 640.289062 C 476.871094 640.289062 452.566406 615.984375 452.566406 586.113281 C 452.566406 556.242188 476.871094 531.945312 506.742188 531.945312 C 536.609375 531.945312 560.914062 556.242188 560.914062 586.113281 C 560.914062 615.984375 536.609375 640.289062 506.742188 640.289062 Z M 281.253906 640.289062 C 251.382812 640.289062 227.078125 615.984375 227.078125 586.113281 C 227.078125 556.242188 251.382812 531.945312 281.253906 531.945312 C 311.125 531.945312 335.429688 556.242188 335.429688 586.113281 C 335.429688 615.984375 311.125 640.289062 281.253906 640.289062 Z M 388.875 0 C 174.445312 0 0 174.445312 0 388.875 C 0 603.304688 174.445312 777.75 388.875 777.75 C 603.304688 777.75 777.75 603.304688 777.75 388.875 C 777.75 174.445312 603.304688 0 388.875 0 " fill-opacity="1" fill-rule="nonzero"/></svg>