<svg xmlns="http://www.w3.org/2000/svg" xmlns:xlink="http://www.w3.org/1999/xlink" width="1024" zoomAndPan="magnify" viewBox="0 0 768 767.999994" height="1024" preserveAspectRatio="xMidYMid meet" version="1.0"><path fill="#333333" d="M 384 1.601562 C 171.9375 1.601562 0 173.535156 0 385.601562 C 0 578.113281 141.824219 737.089844 326.59375 764.863281 L 326.59375 487.359375 L 231.585938 487.359375 L 231.585938 386.433594 L 326.59375 386.433594 L 326.59375 319.265625 C 326.59375 208.0625 380.769531 159.265625 473.183594 159.265625 C 517.441406 159.265625 540.863281 162.558594 551.9375 164.03125 L 551.9375 252.128906 L 488.894531 252.128906 C 449.664062 252.128906 435.96875 289.34375 435.96875 331.265625 L 435.96875 386.433594 L 550.945312 386.433594 L 535.359375 487.359375 L 435.96875 487.359375 L 435.96875 765.664062 C 623.390625 740.257812 768 580 768 385.601562 C 768 173.535156 596.0625 1.601562 384 1.601562 Z M 384 1.601562 " fill-opacity="1" fill-rule="nonzero"/></svg>