<svg xmlns="http://www.w3.org/2000/svg" xmlns:xlink="http://www.w3.org/1999/xlink"    zoomAndPan="magnify" viewBox="0 0 768 767.999994"   preserveAspectRatio="xMidYMid meet" version="1.0"><defs><clipPath id="id1"><path d="M 192 192 L 576 192 L 576 576 L 192 576 Z M 192 192 " clip-rule="nonzero"/></clipPath></defs><g clip-path="url(#id1)"><path fill="#1a4789" d="M 576.019531 384.003906 C 576.019531 387.148438 575.941406 390.289062 575.785156 393.425781 C 575.632812 396.5625 575.402344 399.695312 575.09375 402.824219 C 574.785156 405.953125 574.402344 409.070312 573.941406 412.175781 C 573.480469 415.285156 572.941406 418.378906 572.328125 421.460938 C 571.714844 424.542969 571.027344 427.609375 570.265625 430.65625 C 569.5 433.707031 568.664062 436.734375 567.75 439.738281 C 566.839844 442.746094 565.851562 445.730469 564.792969 448.6875 C 563.734375 451.648438 562.605469 454.578125 561.402344 457.480469 C 560.199219 460.382812 558.925781 463.253906 557.585938 466.097656 C 556.242188 468.9375 554.828125 471.742188 553.347656 474.515625 C 551.867188 477.285156 550.316406 480.019531 548.703125 482.714844 C 547.085938 485.410156 545.40625 488.0625 543.660156 490.675781 C 541.914062 493.289062 540.105469 495.855469 538.234375 498.378906 C 536.363281 500.902344 534.429688 503.378906 532.4375 505.808594 C 530.441406 508.238281 528.390625 510.617188 526.28125 512.945312 C 524.171875 515.273438 522.003906 517.546875 519.78125 519.769531 C 517.558594 521.992188 515.285156 524.160156 512.957031 526.269531 C 510.628906 528.378906 508.25 530.429688 505.820312 532.425781 C 503.390625 534.417969 500.914062 536.351562 498.390625 538.222656 C 495.867188 540.09375 493.300781 541.902344 490.6875 543.648438 C 488.074219 545.394531 485.421875 547.074219 482.726562 548.691406 C 480.03125 550.304688 477.296875 551.855469 474.527344 553.335938 C 471.753906 554.816406 468.949219 556.230469 466.109375 557.570312 C 463.265625 558.914062 460.394531 560.1875 457.492188 561.390625 C 454.589844 562.59375 451.660156 563.722656 448.699219 564.78125 C 445.742188 565.839844 442.757812 566.828125 439.75 567.738281 C 436.746094 568.652344 433.71875 569.488281 430.667969 570.253906 C 427.621094 571.015625 424.554688 571.703125 421.472656 572.316406 C 418.390625 572.929688 415.296875 573.46875 412.1875 573.929688 C 409.082031 574.390625 405.964844 574.773438 402.835938 575.082031 C 399.710938 575.390625 396.578125 575.621094 393.4375 575.773438 C 390.300781 575.929688 387.160156 576.007812 384.015625 576.007812 C 380.875 576.007812 377.734375 575.929688 374.59375 575.773438 C 371.457031 575.621094 368.324219 575.390625 365.195312 575.082031 C 362.070312 574.773438 358.953125 574.390625 355.84375 573.929688 C 352.734375 573.46875 349.640625 572.929688 346.558594 572.316406 C 343.476562 571.703125 340.414062 571.015625 337.363281 570.253906 C 334.316406 569.488281 331.289062 568.652344 328.28125 567.738281 C 325.273438 566.828125 322.292969 565.839844 319.332031 564.78125 C 316.375 563.722656 313.445312 562.59375 310.539062 561.390625 C 307.636719 560.1875 304.765625 558.914062 301.925781 557.570312 C 299.085938 556.230469 296.277344 554.816406 293.507812 553.335938 C 290.738281 551.855469 288.003906 550.304688 285.308594 548.691406 C 282.613281 547.074219 279.960938 545.394531 277.347656 543.648438 C 274.734375 541.902344 272.164062 540.09375 269.640625 538.222656 C 267.117188 536.351562 264.640625 534.417969 262.210938 532.425781 C 259.78125 530.429688 257.40625 528.378906 255.078125 526.269531 C 252.75 524.160156 250.472656 521.992188 248.25 519.769531 C 246.027344 517.546875 243.863281 515.273438 241.753906 512.945312 C 239.644531 510.617188 237.589844 508.238281 235.597656 505.808594 C 233.605469 503.378906 231.671875 500.902344 229.800781 498.378906 C 227.925781 495.855469 226.117188 493.289062 224.375 490.675781 C 222.628906 488.0625 220.945312 485.410156 219.332031 482.714844 C 217.714844 480.019531 216.167969 477.285156 214.6875 474.515625 C 213.207031 471.742188 211.792969 468.9375 210.449219 466.097656 C 209.105469 463.253906 207.832031 460.382812 206.628906 457.480469 C 205.429688 454.578125 204.296875 451.648438 203.238281 448.6875 C 202.179688 445.730469 201.195312 442.746094 200.28125 439.738281 C 199.371094 436.734375 198.53125 433.707031 197.769531 430.65625 C 197.003906 427.609375 196.316406 424.542969 195.703125 421.460938 C 195.089844 418.378906 194.554688 415.285156 194.09375 412.175781 C 193.632812 409.070312 193.246094 405.953125 192.941406 402.824219 C 192.632812 399.695312 192.402344 396.5625 192.246094 393.425781 C 192.09375 390.289062 192.015625 387.148438 192.015625 384.003906 C 192.015625 380.863281 192.09375 377.722656 192.246094 374.582031 C 192.402344 371.445312 192.632812 368.3125 192.941406 365.183594 C 193.246094 362.058594 193.632812 358.941406 194.09375 355.832031 C 194.554688 352.722656 195.089844 349.628906 195.703125 346.546875 C 196.316406 343.464844 197.003906 340.398438 197.769531 337.351562 C 198.53125 334.304688 199.371094 331.277344 200.28125 328.269531 C 201.195312 325.261719 202.179688 322.28125 203.238281 319.320312 C 204.296875 316.363281 205.429688 313.433594 206.628906 310.527344 C 207.832031 307.625 209.105469 304.753906 210.449219 301.914062 C 211.792969 299.074219 213.207031 296.265625 214.6875 293.496094 C 216.167969 290.726562 217.714844 287.992188 219.332031 285.296875 C 220.945312 282.601562 222.628906 279.945312 224.375 277.335938 C 226.117188 274.722656 227.925781 272.152344 229.800781 269.628906 C 231.671875 267.105469 233.605469 264.628906 235.597656 262.199219 C 237.589844 259.769531 239.644531 257.394531 241.753906 255.0625 C 243.863281 252.734375 246.027344 250.460938 248.25 248.238281 C 250.472656 246.015625 252.75 243.851562 255.078125 241.742188 C 257.40625 239.628906 259.78125 237.578125 262.210938 235.585938 C 264.640625 233.59375 267.117188 231.660156 269.640625 229.789062 C 272.164062 227.914062 274.734375 226.105469 277.347656 224.359375 C 279.960938 222.617188 282.613281 220.933594 285.308594 219.320312 C 288.003906 217.703125 290.738281 216.15625 293.507812 214.675781 C 296.277344 213.191406 299.085938 211.78125 301.925781 210.4375 C 304.765625 209.09375 307.636719 207.820312 310.539062 206.617188 C 313.445312 205.414062 316.375 204.285156 319.332031 203.226562 C 322.292969 202.167969 325.273438 201.183594 328.28125 200.269531 C 331.289062 199.359375 334.316406 198.519531 337.363281 197.757812 C 340.414062 196.992188 343.476562 196.304688 346.558594 195.691406 C 349.640625 195.078125 352.734375 194.542969 355.84375 194.082031 C 358.953125 193.621094 362.070312 193.234375 365.195312 192.925781 C 368.324219 192.621094 371.457031 192.386719 374.59375 192.234375 C 377.734375 192.082031 380.875 192.003906 384.015625 192.003906 C 387.160156 192.003906 390.300781 192.082031 393.4375 192.234375 C 396.578125 192.386719 399.710938 192.621094 402.835938 192.925781 C 405.964844 193.234375 409.082031 193.621094 412.1875 194.082031 C 415.296875 194.542969 418.390625 195.078125 421.472656 195.691406 C 424.554688 196.304688 427.621094 196.992188 430.667969 197.757812 C 433.71875 198.519531 436.746094 199.359375 439.75 200.269531 C 442.757812 201.183594 445.742188 202.167969 448.699219 203.226562 C 451.660156 204.285156 454.589844 205.414062 457.492188 206.617188 C 460.394531 207.820312 463.265625 209.09375 466.109375 210.4375 C 468.949219 211.78125 471.753906 213.191406 474.527344 214.675781 C 477.296875 216.15625 480.03125 217.703125 482.726562 219.320312 C 485.421875 220.933594 488.074219 222.617188 490.6875 224.359375 C 493.300781 226.105469 495.867188 227.914062 498.390625 229.789062 C 500.914062 231.660156 503.390625 233.59375 505.820312 235.585938 C 508.25 237.578125 510.628906 239.628906 512.957031 241.742188 C 515.285156 243.851562 517.558594 246.015625 519.78125 248.238281 C 522.003906 250.460938 524.171875 252.734375 526.28125 255.0625 C 528.390625 257.394531 530.441406 259.769531 532.4375 262.199219 C 534.429688 264.628906 536.363281 267.105469 538.234375 269.628906 C 540.105469 272.152344 541.914062 274.722656 543.660156 277.335938 C 545.40625 279.945312 547.085938 282.601562 548.703125 285.296875 C 550.316406 287.992188 551.867188 290.726562 553.347656 293.496094 C 554.828125 296.265625 556.242188 299.074219 557.585938 301.914062 C 558.925781 304.753906 560.199219 307.625 561.402344 310.527344 C 562.605469 313.433594 563.734375 316.363281 564.792969 319.320312 C 565.851562 322.28125 566.839844 325.261719 567.75 328.269531 C 568.664062 331.277344 569.5 334.304688 570.265625 337.351562 C 571.027344 340.398438 571.714844 343.464844 572.328125 346.546875 C 572.941406 349.628906 573.480469 352.722656 573.941406 355.832031 C 574.402344 358.941406 574.785156 362.058594 575.09375 365.183594 C 575.402344 368.3125 575.632812 371.445312 575.785156 374.582031 C 575.941406 377.722656 576.019531 380.863281 576.019531 384.003906 Z M 576.019531 384.003906 " fill-opacity="1" fill-rule="nonzero"/></g><path fill="#ffffff" d="M 432.207031 393.882812 L 437.640625 351.789062 L 395.957031 351.789062 L 395.957031 324.914062 C 395.957031 312.726562 399.355469 304.421875 416.828125 304.421875 L 439.097656 304.410156 L 439.097656 266.765625 C 435.253906 266.25 422.03125 265.105469 406.625 265.105469 C 374.488281 265.105469 352.5 284.726562 352.5 320.75 L 352.5 351.789062 L 316.148438 351.789062 L 316.148438 393.882812 L 352.5 393.882812 L 352.5 501.878906 L 395.957031 501.878906 L 395.957031 393.882812 Z M 432.207031 393.882812 " fill-opacity="1" fill-rule="nonzero"/></svg>