<svg xmlns="http://www.w3.org/2000/svg" xmlns:xlink="http://www.w3.org/1999/xlink" width="1024" zoomAndPan="magnify" viewBox="0 0 768 767.999994" height="1024" preserveAspectRatio="xMidYMid meet" version="1.0"><defs><clipPath id="id1"><path d="M 0 0 L 762.75 0 L 762.75 762.75 L 0 762.75 Z M 0 0 " clip-rule="nonzero"/></clipPath></defs><path fill="#7322c1" d="M 489 542.761719 C 489 543.660156 488.957031 544.558594 488.871094 545.453125 C 488.78125 546.34375 488.648438 547.234375 488.472656 548.113281 C 488.300781 548.996094 488.082031 549.867188 487.820312 550.726562 C 487.558594 551.585938 487.257812 552.429688 486.914062 553.261719 C 486.570312 554.089844 486.1875 554.902344 485.761719 555.695312 C 485.339844 556.488281 484.878906 557.257812 484.378906 558.003906 C 483.878906 558.75 483.34375 559.472656 482.773438 560.164062 C 482.203125 560.859375 481.601562 561.523438 480.964844 562.160156 C 480.332031 562.796875 479.667969 563.398438 478.972656 563.96875 C 478.277344 564.539062 477.554688 565.074219 476.808594 565.570312 C 476.0625 566.070312 475.292969 566.53125 474.5 566.957031 C 473.707031 567.378906 472.898438 567.761719 472.066406 568.105469 C 471.238281 568.449219 470.390625 568.753906 469.53125 569.015625 C 468.671875 569.273438 467.800781 569.492188 466.921875 569.667969 C 466.039062 569.84375 465.152344 569.976562 464.257812 570.0625 C 463.363281 570.152344 462.46875 570.195312 461.570312 570.195312 C 460.671875 570.195312 459.773438 570.152344 458.878906 570.0625 C 457.984375 569.976562 457.097656 569.84375 456.21875 569.667969 C 455.335938 569.492188 454.464844 569.273438 453.605469 569.015625 C 452.746094 568.753906 451.902344 568.449219 451.070312 568.105469 C 450.242188 567.761719 449.429688 567.378906 448.636719 566.957031 C 447.84375 566.53125 447.074219 566.070312 446.328125 565.570312 C 445.582031 565.074219 444.859375 564.539062 444.164062 563.96875 C 443.472656 563.398438 442.804688 562.796875 442.171875 562.160156 C 441.535156 561.523438 440.933594 560.859375 440.363281 560.164062 C 439.792969 559.472656 439.257812 558.75 438.757812 558.003906 C 438.261719 557.257812 437.800781 556.488281 437.375 555.695312 C 436.953125 554.902344 436.566406 554.089844 436.222656 553.261719 C 435.878906 552.429688 435.578125 551.585938 435.316406 550.726562 C 435.058594 549.867188 434.839844 548.996094 434.664062 548.113281 C 434.488281 547.234375 434.355469 546.34375 434.269531 545.453125 C 434.179688 544.558594 434.136719 543.660156 434.136719 542.761719 C 434.136719 541.863281 434.179688 540.96875 434.269531 540.074219 C 434.355469 539.179688 434.488281 538.292969 434.664062 537.410156 C 434.839844 536.527344 435.054688 535.660156 435.316406 534.800781 C 435.578125 533.9375 435.878906 533.09375 436.222656 532.265625 C 436.566406 531.433594 436.953125 530.625 437.375 529.832031 C 437.800781 529.039062 438.261719 528.269531 438.757812 527.523438 C 439.257812 526.773438 439.792969 526.054688 440.363281 525.359375 C 440.933594 524.664062 441.535156 524 442.171875 523.363281 C 442.804688 522.730469 443.472656 522.125 444.164062 521.558594 C 444.859375 520.988281 445.582031 520.453125 446.328125 519.953125 C 447.074219 519.453125 447.84375 518.992188 448.636719 518.570312 C 449.429688 518.144531 450.242188 517.761719 451.070312 517.417969 C 451.902344 517.074219 452.746094 516.773438 453.605469 516.511719 C 454.464844 516.25 455.335938 516.03125 456.21875 515.855469 C 457.097656 515.679688 457.984375 515.550781 458.878906 515.460938 C 459.773438 515.375 460.671875 515.328125 461.570312 515.328125 C 462.46875 515.328125 463.363281 515.375 464.257812 515.460938 C 465.152344 515.550781 466.039062 515.679688 466.921875 515.855469 C 467.800781 516.03125 468.671875 516.25 469.53125 516.511719 C 470.390625 516.773438 471.238281 517.074219 472.066406 517.417969 C 472.898438 517.761719 473.707031 518.144531 474.5 518.570312 C 475.292969 518.992188 476.0625 519.453125 476.808594 519.953125 C 477.558594 520.453125 478.277344 520.988281 478.972656 521.554688 C 479.667969 522.125 480.332031 522.730469 480.964844 523.363281 C 481.601562 524 482.203125 524.664062 482.773438 525.359375 C 483.34375 526.054688 483.878906 526.773438 484.378906 527.523438 C 484.878906 528.269531 485.339844 529.039062 485.761719 529.832031 C 486.1875 530.621094 486.570312 531.433594 486.914062 532.265625 C 487.257812 533.09375 487.558594 533.9375 487.820312 534.800781 C 488.082031 535.660156 488.300781 536.527344 488.472656 537.410156 C 488.648438 538.292969 488.78125 539.179688 488.871094 540.074219 C 488.957031 540.96875 489 541.863281 489 542.761719 Z M 489 542.761719 " fill-opacity="1" fill-rule="nonzero"/><path fill="#7322c1" d="M 339.265625 542.761719 C 339.265625 543.660156 339.222656 544.558594 339.132812 545.453125 C 339.046875 546.34375 338.914062 547.234375 338.738281 548.113281 C 338.5625 548.996094 338.34375 549.867188 338.085938 550.726562 C 337.824219 551.585938 337.523438 552.429688 337.175781 553.261719 C 336.832031 554.089844 336.449219 554.902344 336.027344 555.695312 C 335.601562 556.488281 335.140625 557.257812 334.644531 558.003906 C 334.144531 558.75 333.609375 559.472656 333.039062 560.164062 C 332.46875 560.859375 331.867188 561.523438 331.230469 562.160156 C 330.597656 562.796875 329.929688 563.398438 329.234375 563.96875 C 328.542969 564.539062 327.820312 565.074219 327.074219 565.570312 C 326.328125 566.070312 325.558594 566.53125 324.765625 566.957031 C 323.972656 567.378906 323.160156 567.761719 322.332031 568.105469 C 321.5 568.449219 320.65625 568.753906 319.796875 569.015625 C 318.9375 569.273438 318.066406 569.492188 317.183594 569.667969 C 316.304688 569.84375 315.417969 569.976562 314.523438 570.0625 C 313.628906 570.152344 312.730469 570.195312 311.832031 570.195312 C 310.933594 570.195312 310.039062 570.152344 309.144531 570.0625 C 308.25 569.976562 307.363281 569.84375 306.480469 569.667969 C 305.601562 569.492188 304.730469 569.273438 303.871094 569.015625 C 303.011719 568.753906 302.164062 568.449219 301.335938 568.105469 C 300.503906 567.761719 299.695312 567.378906 298.902344 566.957031 C 298.109375 566.53125 297.339844 566.070312 296.59375 565.570312 C 295.84375 565.074219 295.125 564.539062 294.429688 563.96875 C 293.734375 563.398438 293.070312 562.796875 292.433594 562.160156 C 291.800781 561.523438 291.199219 560.859375 290.628906 560.164062 C 290.058594 559.472656 289.523438 558.75 289.023438 558.003906 C 288.523438 557.257812 288.0625 556.488281 287.640625 555.695312 C 287.214844 554.902344 286.832031 554.089844 286.488281 553.261719 C 286.144531 552.429688 285.84375 551.585938 285.582031 550.726562 C 285.320312 549.867188 285.101562 548.996094 284.925781 548.113281 C 284.753906 547.234375 284.621094 546.34375 284.53125 545.453125 C 284.445312 544.558594 284.402344 543.660156 284.402344 542.761719 C 284.402344 541.863281 284.445312 540.96875 284.53125 540.074219 C 284.621094 539.179688 284.753906 538.292969 284.925781 537.410156 C 285.101562 536.527344 285.320312 535.660156 285.582031 534.800781 C 285.84375 533.9375 286.144531 533.09375 286.488281 532.265625 C 286.832031 531.433594 287.214844 530.625 287.640625 529.832031 C 288.0625 529.039062 288.523438 528.269531 289.023438 527.523438 C 289.523438 526.773438 290.058594 526.054688 290.628906 525.359375 C 291.199219 524.664062 291.800781 524 292.433594 523.363281 C 293.070312 522.730469 293.734375 522.125 294.429688 521.558594 C 295.125 520.988281 295.84375 520.453125 296.59375 519.953125 C 297.339844 519.453125 298.109375 518.992188 298.902344 518.570312 C 299.695312 518.144531 300.503906 517.761719 301.335938 517.417969 C 302.164062 517.074219 303.011719 516.773438 303.871094 516.511719 C 304.730469 516.25 305.601562 516.03125 306.480469 515.855469 C 307.363281 515.679688 308.25 515.550781 309.144531 515.460938 C 310.039062 515.375 310.933594 515.328125 311.832031 515.328125 C 312.730469 515.328125 313.628906 515.375 314.523438 515.460938 C 315.417969 515.550781 316.304688 515.679688 317.183594 515.855469 C 318.066406 516.03125 318.9375 516.25 319.796875 516.511719 C 320.65625 516.773438 321.5 517.074219 322.332031 517.417969 C 323.160156 517.761719 323.972656 518.144531 324.765625 518.570312 C 325.558594 518.992188 326.328125 519.453125 327.074219 519.953125 C 327.820312 520.453125 328.542969 520.988281 329.238281 521.554688 C 329.929688 522.125 330.597656 522.730469 331.230469 523.363281 C 331.867188 524 332.46875 524.664062 333.039062 525.359375 C 333.609375 526.054688 334.144531 526.773438 334.644531 527.523438 C 335.140625 528.269531 335.601562 529.039062 336.027344 529.832031 C 336.449219 530.621094 336.832031 531.433594 337.175781 532.265625 C 337.523438 533.09375 337.824219 533.9375 338.085938 534.800781 C 338.34375 535.660156 338.5625 536.527344 338.738281 537.410156 C 338.914062 538.292969 339.046875 539.179688 339.132812 540.074219 C 339.222656 540.96875 339.265625 541.863281 339.265625 542.761719 Z M 339.265625 542.761719 " fill-opacity="1" fill-rule="nonzero"/><path fill="#7322c1" d="M 528.007812 215.859375 C 526.929688 215.859375 525.855469 215.882812 524.78125 215.9375 C 523.707031 215.988281 522.632812 216.070312 521.5625 216.175781 C 520.492188 216.28125 519.421875 216.410156 518.359375 216.570312 C 517.292969 216.726562 516.234375 216.910156 515.179688 217.121094 C 514.125 217.332031 513.074219 217.566406 512.03125 217.828125 C 510.984375 218.089844 509.949219 218.378906 508.917969 218.691406 C 507.890625 219.003906 506.867188 219.339844 505.855469 219.703125 C 504.84375 220.066406 503.839844 220.453125 502.84375 220.863281 C 501.851562 221.273438 500.867188 221.710938 499.894531 222.171875 C 498.921875 222.632812 497.960938 223.113281 497.011719 223.621094 C 496.0625 224.128906 495.125 224.660156 494.203125 225.214844 C 493.28125 225.765625 492.371094 226.34375 491.476562 226.941406 C 490.582031 227.539062 489.703125 228.15625 488.835938 228.796875 C 487.972656 229.4375 487.125 230.101562 486.292969 230.785156 C 485.460938 231.464844 484.648438 232.167969 483.847656 232.890625 C 483.050781 233.613281 482.273438 234.355469 481.511719 235.117188 C 480.75 235.878906 480.007812 236.65625 479.285156 237.453125 C 478.5625 238.253906 477.859375 239.066406 477.179688 239.898438 C 476.496094 240.730469 475.832031 241.578125 475.191406 242.441406 C 474.550781 243.308594 473.933594 244.1875 473.335938 245.082031 C 472.738281 245.976562 472.160156 246.886719 471.609375 247.808594 C 471.054688 248.730469 470.523438 249.667969 470.015625 250.617188 C 469.507812 251.566406 469.027344 252.527344 468.566406 253.5 C 468.105469 254.472656 467.667969 255.457031 467.257812 256.449219 C 466.847656 257.445312 466.460938 258.449219 466.097656 259.460938 C 465.734375 260.472656 465.394531 261.496094 465.085938 262.523438 C 464.773438 263.554688 464.484375 264.589844 464.222656 265.636719 C 463.960938 266.679688 463.726562 267.730469 463.515625 268.785156 C 463.304688 269.839844 463.121094 270.898438 462.964844 271.964844 C 462.804688 273.027344 462.675781 274.097656 462.570312 275.167969 C 462.464844 276.238281 462.386719 277.3125 462.332031 278.386719 C 462.277344 279.460938 462.253906 280.535156 462.253906 281.613281 C 462.253906 282.6875 462.277344 283.765625 462.332031 284.839844 C 462.386719 285.914062 462.464844 286.988281 462.570312 288.058594 C 462.675781 289.128906 462.804688 290.195312 462.964844 291.261719 C 463.121094 292.324219 463.304688 293.386719 463.515625 294.441406 C 463.726562 295.496094 463.960938 296.546875 464.222656 297.589844 C 464.484375 298.632812 464.773438 299.671875 465.085938 300.699219 C 465.398438 301.730469 465.734375 302.75 466.097656 303.765625 C 466.460938 304.777344 466.847656 305.78125 467.257812 306.777344 C 467.667969 307.769531 468.105469 308.753906 468.566406 309.726562 C 469.027344 310.699219 469.507812 311.660156 470.015625 312.609375 C 470.523438 313.558594 471.054688 314.492188 471.609375 315.417969 C 472.160156 316.339844 472.738281 317.25 473.335938 318.144531 C 473.933594 319.039062 474.550781 319.917969 475.191406 320.78125 C 475.832031 321.648438 476.496094 322.496094 477.179688 323.328125 C 477.859375 324.160156 478.5625 324.972656 479.285156 325.769531 C 480.007812 326.566406 480.75 327.347656 481.511719 328.109375 C 482.273438 328.867188 483.050781 329.609375 483.847656 330.332031 C 484.644531 331.054688 485.460938 331.757812 486.292969 332.441406 C 487.125 333.125 487.972656 333.785156 488.835938 334.425781 C 489.703125 335.066406 490.582031 335.6875 491.476562 336.285156 C 492.371094 336.882812 493.28125 337.457031 494.203125 338.011719 C 495.125 338.566406 496.0625 339.09375 497.011719 339.601562 C 497.960938 340.109375 498.921875 340.59375 499.894531 341.054688 C 500.867188 341.515625 501.851562 341.949219 502.84375 342.363281 C 503.839844 342.773438 504.84375 343.160156 505.855469 343.523438 C 506.867188 343.886719 507.890625 344.222656 508.917969 344.535156 C 509.949219 344.847656 510.984375 345.136719 512.03125 345.394531 C 513.074219 345.65625 514.125 345.894531 515.179688 346.101562 C 516.234375 346.3125 517.292969 346.496094 518.359375 346.65625 C 519.421875 346.8125 520.492188 346.945312 521.5625 347.050781 C 522.632812 347.15625 523.707031 347.234375 524.78125 347.289062 C 525.855469 347.339844 526.929688 347.367188 528.007812 347.367188 C 529.082031 347.367188 530.160156 347.339844 531.234375 347.289062 C 532.308594 347.234375 533.382812 347.15625 534.453125 347.050781 C 535.523438 346.945312 536.589844 346.8125 537.65625 346.65625 C 538.71875 346.496094 539.78125 346.3125 540.835938 346.101562 C 541.890625 345.894531 542.941406 345.65625 543.984375 345.394531 C 545.027344 345.136719 546.066406 344.847656 547.09375 344.535156 C 548.125 344.222656 549.144531 343.886719 550.160156 343.523438 C 551.171875 343.160156 552.175781 342.773438 553.171875 342.363281 C 554.164062 341.949219 555.148438 341.515625 556.121094 341.054688 C 557.09375 340.59375 558.054688 340.109375 559.003906 339.601562 C 559.953125 339.09375 560.886719 338.566406 561.8125 338.011719 C 562.734375 337.457031 563.644531 336.882812 564.539062 336.285156 C 565.433594 335.6875 566.3125 335.066406 567.175781 334.425781 C 568.042969 333.785156 568.890625 333.125 569.722656 332.441406 C 570.554688 331.757812 571.367188 331.054688 572.164062 330.332031 C 572.960938 329.609375 573.742188 328.867188 574.503906 328.109375 C 575.261719 327.347656 576.003906 326.566406 576.726562 325.769531 C 577.449219 324.972656 578.152344 324.160156 578.835938 323.328125 C 579.519531 322.496094 580.179688 321.648438 580.820312 320.78125 C 581.460938 319.917969 582.082031 319.039062 582.679688 318.144531 C 583.277344 317.25 583.851562 316.339844 584.40625 315.417969 C 584.960938 314.492188 585.488281 313.558594 585.996094 312.609375 C 586.503906 311.660156 586.988281 310.699219 587.449219 309.726562 C 587.910156 308.753906 588.34375 307.769531 588.757812 306.777344 C 589.167969 305.78125 589.554688 304.777344 589.917969 303.765625 C 590.28125 302.75 590.617188 301.730469 590.929688 300.699219 C 591.242188 299.671875 591.527344 298.632812 591.789062 297.589844 C 592.050781 296.546875 592.289062 295.496094 592.496094 294.441406 C 592.707031 293.386719 592.890625 292.324219 593.050781 291.261719 C 593.207031 290.195312 593.339844 289.128906 593.445312 288.058594 C 593.550781 286.988281 593.628906 285.914062 593.683594 284.839844 C 593.734375 283.765625 593.761719 282.6875 593.761719 281.613281 C 593.761719 280.535156 593.734375 279.460938 593.683594 278.386719 C 593.628906 277.3125 593.550781 276.238281 593.445312 275.167969 C 593.339844 274.097656 593.207031 273.027344 593.050781 271.964844 C 592.890625 270.898438 592.707031 269.839844 592.496094 268.785156 C 592.289062 267.730469 592.050781 266.679688 591.789062 265.636719 C 591.527344 264.589844 591.242188 263.554688 590.929688 262.523438 C 590.617188 261.496094 590.28125 260.472656 589.917969 259.460938 C 589.554688 258.449219 589.167969 257.445312 588.757812 256.449219 C 588.34375 255.457031 587.910156 254.472656 587.449219 253.5 C 586.988281 252.527344 586.503906 251.566406 585.996094 250.617188 C 585.488281 249.667969 584.960938 248.730469 584.40625 247.808594 C 583.851562 246.886719 583.277344 245.976562 582.679688 245.082031 C 582.082031 244.1875 581.460938 243.308594 580.820312 242.441406 C 580.179688 241.578125 579.519531 240.730469 578.835938 239.898438 C 578.152344 239.066406 577.449219 238.253906 576.726562 237.453125 C 576.003906 236.65625 575.261719 235.878906 574.503906 235.117188 C 573.742188 234.355469 572.960938 233.613281 572.164062 232.890625 C 571.367188 232.167969 570.554688 231.464844 569.722656 230.785156 C 568.890625 230.101562 568.042969 229.4375 567.175781 228.796875 C 566.3125 228.15625 565.433594 227.539062 564.539062 226.941406 C 563.644531 226.34375 562.734375 225.765625 561.8125 225.214844 C 560.886719 224.660156 559.953125 224.128906 559.003906 223.621094 C 558.054688 223.113281 557.09375 222.632812 556.121094 222.171875 C 555.148438 221.710938 554.164062 221.273438 553.171875 220.863281 C 552.175781 220.453125 551.171875 220.066406 550.160156 219.703125 C 549.144531 219.339844 548.125 219.003906 547.09375 218.691406 C 546.066406 218.378906 545.027344 218.089844 543.984375 217.828125 C 542.941406 217.566406 541.890625 217.332031 540.835938 217.121094 C 539.78125 216.910156 538.71875 216.726562 537.65625 216.570312 C 536.589844 216.410156 535.523438 216.28125 534.453125 216.175781 C 533.382812 216.070312 532.308594 215.992188 531.234375 215.9375 C 530.160156 215.882812 529.082031 215.859375 528.007812 215.859375 Z M 580.609375 281.613281 C 580.609375 282.476562 580.527344 283.332031 580.359375 284.179688 C 580.1875 285.023438 579.941406 285.847656 579.609375 286.644531 C 579.277344 287.441406 578.875 288.199219 578.394531 288.917969 C 577.914062 289.636719 577.371094 290.300781 576.757812 290.910156 C 576.148438 291.523438 575.484375 292.066406 574.765625 292.546875 C 574.046875 293.027344 573.289062 293.433594 572.492188 293.761719 C 571.695312 294.09375 570.871094 294.34375 570.023438 294.511719 C 569.179688 294.679688 568.324219 294.761719 567.460938 294.761719 L 541.15625 294.761719 L 541.15625 321.066406 C 541.15625 321.929688 541.074219 322.785156 540.90625 323.628906 C 540.738281 324.476562 540.488281 325.300781 540.15625 326.097656 C 539.828125 326.894531 539.421875 327.652344 538.941406 328.371094 C 538.460938 329.089844 537.917969 329.753906 537.304688 330.363281 C 536.695312 330.976562 536.03125 331.519531 535.3125 332 C 534.59375 332.480469 533.835938 332.882812 533.039062 333.214844 C 532.242188 333.546875 531.417969 333.792969 530.574219 333.964844 C 529.726562 334.132812 528.871094 334.214844 528.007812 334.214844 C 527.144531 334.214844 526.289062 334.132812 525.441406 333.964844 C 524.59375 333.792969 523.773438 333.546875 522.972656 333.214844 C 522.175781 332.882812 521.417969 332.480469 520.699219 332 C 519.984375 331.519531 519.320312 330.976562 518.707031 330.363281 C 518.097656 329.753906 517.550781 329.089844 517.074219 328.371094 C 516.59375 327.652344 516.1875 326.894531 515.855469 326.097656 C 515.527344 325.300781 515.277344 324.476562 515.109375 323.628906 C 514.941406 322.785156 514.855469 321.929688 514.855469 321.066406 L 514.855469 294.761719 L 488.554688 294.761719 C 487.691406 294.761719 486.835938 294.679688 485.988281 294.511719 C 485.140625 294.34375 484.320312 294.09375 483.523438 293.761719 C 482.722656 293.433594 481.964844 293.027344 481.25 292.546875 C 480.53125 292.066406 479.867188 291.523438 479.253906 290.910156 C 478.644531 290.300781 478.101562 289.636719 477.621094 288.917969 C 477.140625 288.199219 476.734375 287.441406 476.40625 286.644531 C 476.074219 285.847656 475.824219 285.023438 475.65625 284.179688 C 475.488281 283.332031 475.402344 282.476562 475.402344 281.613281 C 475.402344 280.75 475.488281 279.894531 475.65625 279.046875 C 475.824219 278.199219 476.074219 277.378906 476.40625 276.578125 C 476.734375 275.78125 477.140625 275.023438 477.621094 274.304688 C 478.101562 273.589844 478.644531 272.925781 479.253906 272.3125 C 479.867188 271.703125 480.53125 271.15625 481.25 270.679688 C 481.964844 270.199219 482.722656 269.792969 483.523438 269.460938 C 484.320312 269.132812 485.140625 268.882812 485.988281 268.714844 C 486.835938 268.546875 487.691406 268.460938 488.554688 268.460938 L 514.855469 268.460938 L 514.855469 242.160156 C 514.855469 241.296875 514.941406 240.441406 515.109375 239.59375 C 515.277344 238.746094 515.527344 237.925781 515.855469 237.128906 C 516.1875 236.328125 516.59375 235.570312 517.074219 234.855469 C 517.550781 234.136719 518.097656 233.472656 518.707031 232.859375 C 519.320312 232.25 519.984375 231.707031 520.699219 231.226562 C 521.417969 230.746094 522.175781 230.339844 522.972656 230.011719 C 523.773438 229.679688 524.59375 229.429688 525.441406 229.261719 C 526.289062 229.09375 527.144531 229.007812 528.007812 229.007812 C 528.871094 229.007812 529.726562 229.09375 530.574219 229.261719 C 531.417969 229.429688 532.242188 229.679688 533.039062 230.011719 C 533.835938 230.339844 534.59375 230.746094 535.3125 231.226562 C 536.03125 231.707031 536.695312 232.25 537.304688 232.859375 C 537.917969 233.472656 538.460938 234.136719 538.941406 234.855469 C 539.421875 235.570312 539.828125 236.328125 540.15625 237.128906 C 540.488281 237.925781 540.738281 238.746094 540.90625 239.59375 C 541.074219 240.441406 541.15625 241.296875 541.15625 242.160156 L 541.15625 268.460938 L 567.460938 268.460938 C 568.324219 268.460938 569.179688 268.546875 570.023438 268.714844 C 570.871094 268.882812 571.695312 269.132812 572.492188 269.460938 C 573.289062 269.792969 574.046875 270.199219 574.765625 270.679688 C 575.484375 271.15625 576.148438 271.703125 576.757812 272.3125 C 577.371094 272.925781 577.914062 273.589844 578.394531 274.304688 C 578.875 275.023438 579.277344 275.78125 579.609375 276.578125 C 579.941406 277.378906 580.1875 278.199219 580.359375 279.046875 C 580.527344 279.894531 580.609375 280.75 580.609375 281.613281 Z M 580.609375 281.613281 " fill-opacity="1" fill-rule="evenodd"/><g clip-path="url(#id1)"><path fill="#7322c1" d="M 381.375 0 C 375.132812 0 368.894531 0.152344 362.660156 0.460938 C 356.429688 0.765625 350.207031 1.226562 343.992188 1.835938 C 337.78125 2.449219 331.589844 3.210938 325.414062 4.128906 C 319.242188 5.042969 313.09375 6.109375 306.972656 7.328125 C 300.851562 8.546875 294.761719 9.914062 288.707031 11.429688 C 282.652344 12.945312 276.640625 14.609375 270.667969 16.421875 C 264.695312 18.234375 258.769531 20.191406 252.894531 22.292969 C 247.015625 24.394531 241.195312 26.640625 235.429688 29.03125 C 229.664062 31.417969 223.957031 33.949219 218.316406 36.617188 C 212.675781 39.285156 207.101562 42.089844 201.597656 45.03125 C 196.089844 47.972656 190.664062 51.050781 185.308594 54.257812 C 179.957031 57.46875 174.683594 60.804688 169.496094 64.273438 C 164.304688 67.742188 159.203125 71.332031 154.191406 75.050781 C 149.175781 78.769531 144.257812 82.609375 139.433594 86.566406 C 134.609375 90.527344 129.882812 94.601562 125.257812 98.792969 C 120.632812 102.984375 116.117188 107.289062 111.703125 111.703125 C 107.289062 116.117188 102.984375 120.632812 98.792969 125.257812 C 94.601562 129.882812 90.527344 134.609375 86.566406 139.433594 C 82.609375 144.257812 78.769531 149.175781 75.050781 154.191406 C 71.332031 159.203125 67.742188 164.304688 64.273438 169.496094 C 60.804688 174.683594 57.46875 179.957031 54.257812 185.308594 C 51.050781 190.664062 47.972656 196.089844 45.03125 201.597656 C 42.089844 207.101562 39.285156 212.675781 36.617188 218.316406 C 33.949219 223.957031 31.417969 229.664062 29.03125 235.429688 C 26.640625 241.195312 24.394531 247.015625 22.292969 252.894531 C 20.191406 258.769531 18.234375 264.695312 16.421875 270.667969 C 14.609375 276.640625 12.945312 282.652344 11.429688 288.707031 C 9.914062 294.761719 8.546875 300.851562 7.328125 306.972656 C 6.109375 313.09375 5.042969 319.242188 4.128906 325.414062 C 3.210938 331.589844 2.449219 337.78125 1.835938 343.992188 C 1.222656 350.207031 0.765625 356.429688 0.460938 362.660156 C 0.152344 368.894531 0 375.132812 0 381.375 C 0 387.617188 0.152344 393.855469 0.460938 400.089844 C 0.765625 406.320312 1.222656 412.542969 1.835938 418.757812 C 2.449219 424.96875 3.210938 431.160156 4.128906 437.335938 C 5.042969 443.507812 6.109375 449.65625 7.328125 455.777344 C 8.546875 461.898438 9.914062 467.988281 11.429688 474.042969 C 12.945312 480.097656 14.609375 486.109375 16.421875 492.082031 C 18.234375 498.054688 20.191406 503.980469 22.292969 509.855469 C 24.394531 515.734375 26.640625 521.554688 29.03125 527.320312 C 31.417969 533.085938 33.949219 538.792969 36.617188 544.433594 C 39.285156 550.074219 42.089844 555.648438 45.03125 561.152344 C 47.972656 566.660156 51.050781 572.085938 54.257812 577.441406 C 57.46875 582.792969 60.804688 588.066406 64.273438 593.253906 C 67.742188 598.445312 71.332031 603.546875 75.050781 608.558594 C 78.769531 613.574219 82.609375 618.492188 86.566406 623.316406 C 90.527344 628.140625 94.601562 632.867188 98.792969 637.492188 C 102.984375 642.117188 107.289062 646.632812 111.703125 651.046875 C 116.117188 655.460938 120.632812 659.761719 125.257812 663.957031 C 129.882812 668.148438 134.609375 672.222656 139.433594 676.183594 C 144.257812 680.140625 149.175781 683.980469 154.191406 687.699219 C 159.203125 691.417969 164.304688 695.007812 169.496094 698.476562 C 174.683594 701.945312 179.957031 705.28125 185.308594 708.492188 C 190.664062 711.699219 196.089844 714.773438 201.597656 717.71875 C 207.101562 720.660156 212.675781 723.464844 218.316406 726.132812 C 223.957031 728.800781 229.664062 731.332031 235.429688 733.71875 C 241.195312 736.109375 247.015625 738.355469 252.894531 740.457031 C 258.769531 742.558594 264.695312 744.515625 270.667969 746.328125 C 276.640625 748.140625 282.652344 749.804688 288.707031 751.320312 C 294.761719 752.835938 300.851562 754.203125 306.972656 755.421875 C 313.09375 756.640625 319.242188 757.707031 325.414062 758.621094 C 331.589844 759.539062 337.78125 760.300781 343.992188 760.914062 C 350.203125 761.523438 356.429688 761.984375 362.660156 762.289062 C 368.894531 762.597656 375.132812 762.75 381.375 762.75 C 387.617188 762.75 393.855469 762.597656 400.089844 762.289062 C 406.320312 761.984375 412.542969 761.523438 418.757812 760.914062 C 424.96875 760.300781 431.160156 759.539062 437.335938 758.621094 C 443.507812 757.707031 449.65625 756.640625 455.777344 755.421875 C 461.898438 754.203125 467.988281 752.835938 474.042969 751.320312 C 480.097656 749.804688 486.109375 748.140625 492.082031 746.328125 C 498.054688 744.515625 503.980469 742.558594 509.855469 740.457031 C 515.734375 738.355469 521.554688 736.109375 527.320312 733.71875 C 533.085938 731.332031 538.792969 728.800781 544.433594 726.132812 C 550.074219 723.464844 555.648438 720.660156 561.152344 717.71875 C 566.660156 714.773438 572.085938 711.699219 577.441406 708.492188 C 582.792969 705.28125 588.066406 701.945312 593.253906 698.476562 C 598.445312 695.007812 603.546875 691.417969 608.558594 687.699219 C 613.574219 683.980469 618.492188 680.140625 623.316406 676.183594 C 628.140625 672.222656 632.867188 668.148438 637.492188 663.953125 C 642.113281 659.761719 646.632812 655.460938 651.046875 651.046875 C 655.460938 646.632812 659.761719 642.117188 663.953125 637.492188 C 668.148438 632.867188 672.222656 628.140625 676.183594 623.316406 C 680.140625 618.492188 683.980469 613.574219 687.699219 608.558594 C 691.417969 603.546875 695.007812 598.445312 698.476562 593.253906 C 701.945312 588.066406 705.28125 582.792969 708.492188 577.441406 C 711.699219 572.085938 714.773438 566.660156 717.71875 561.152344 C 720.660156 555.648438 723.464844 550.074219 726.132812 544.433594 C 728.800781 538.792969 731.332031 533.085938 733.71875 527.320312 C 736.109375 521.554688 738.355469 515.734375 740.457031 509.855469 C 742.558594 503.980469 744.515625 498.054688 746.328125 492.082031 C 748.140625 486.109375 749.804688 480.097656 751.320312 474.042969 C 752.835938 467.988281 754.203125 461.898438 755.421875 455.777344 C 756.640625 449.65625 757.707031 443.507812 758.621094 437.335938 C 759.539062 431.160156 760.300781 424.96875 760.914062 418.757812 C 761.523438 412.542969 761.984375 406.320312 762.289062 400.089844 C 762.597656 393.855469 762.75 387.617188 762.75 381.375 C 762.746094 375.132812 762.589844 368.898438 762.28125 362.664062 C 761.972656 356.429688 761.511719 350.210938 760.898438 344 C 760.28125 337.789062 759.515625 331.597656 758.597656 325.425781 C 757.679688 319.253906 756.609375 313.105469 755.390625 306.984375 C 754.171875 300.863281 752.804688 294.777344 751.285156 288.726562 C 749.765625 282.671875 748.101562 276.660156 746.285156 270.6875 C 744.472656 264.71875 742.515625 258.792969 740.410156 252.917969 C 738.308594 247.042969 736.058594 241.222656 733.671875 235.457031 C 731.28125 229.691406 728.75 223.988281 726.082031 218.347656 C 723.414062 212.707031 720.605469 207.136719 717.664062 201.632812 C 714.71875 196.128906 711.644531 190.703125 708.4375 185.347656 C 705.226562 179.996094 701.886719 174.726562 698.421875 169.539062 C 694.953125 164.347656 691.359375 159.25 687.640625 154.238281 C 683.921875 149.226562 680.085938 144.304688 676.125 139.484375 C 672.167969 134.660156 668.089844 129.933594 663.898438 125.3125 C 659.707031 120.6875 655.40625 116.167969 650.992188 111.757812 C 646.582031 107.34375 642.0625 103.042969 637.4375 98.851562 C 632.816406 94.660156 628.089844 90.582031 623.265625 86.625 C 618.445312 82.664062 613.527344 78.828125 608.511719 75.109375 C 603.5 71.390625 598.402344 67.796875 593.210938 64.328125 C 588.023438 60.863281 582.753906 57.523438 577.402344 54.316406 C 572.046875 51.105469 566.621094 48.03125 561.117188 45.085938 C 555.613281 42.144531 550.042969 39.335938 544.402344 36.667969 C 538.761719 34 533.058594 31.46875 527.292969 29.078125 C 521.527344 26.691406 515.707031 24.441406 509.832031 22.339844 C 503.957031 20.234375 498.035156 18.277344 492.0625 16.464844 C 486.089844 14.648438 480.078125 12.984375 474.023438 11.464844 C 467.972656 9.945312 461.886719 8.578125 455.765625 7.359375 C 449.644531 6.140625 443.496094 5.070312 437.324219 4.152344 C 431.152344 3.234375 424.960938 2.46875 418.75 1.851562 C 412.539062 1.238281 406.320312 0.777344 400.085938 0.46875 C 393.851562 0.160156 387.617188 0.00390625 381.375 0 Z M 311.832031 596.496094 C 310.074219 596.496094 308.316406 596.410156 306.566406 596.234375 C 304.816406 596.0625 303.078125 595.804688 301.351562 595.460938 C 299.625 595.117188 297.921875 594.6875 296.238281 594.175781 C 294.554688 593.664062 292.898438 593.070312 291.273438 592.398438 C 289.648438 591.722656 288.058594 590.972656 286.507812 590.140625 C 284.957031 589.3125 283.449219 588.40625 281.988281 587.429688 C 280.523438 586.449219 279.113281 585.402344 277.753906 584.285156 C 276.394531 583.167969 275.09375 581.988281 273.847656 580.742188 C 272.605469 579.5 271.425781 578.195312 270.308594 576.835938 C 269.191406 575.472656 268.144531 574.0625 267.167969 572.597656 C 266.191406 571.132812 265.289062 569.625 264.460938 568.074219 C 263.632812 566.523438 262.878906 564.933594 262.207031 563.308594 C 261.535156 561.679688 260.945312 560.027344 260.433594 558.34375 C 259.921875 556.65625 259.496094 554.953125 259.152344 553.226562 C 258.8125 551.5 258.554688 549.761719 258.382812 548.011719 C 258.210938 546.261719 258.125 544.503906 258.125 542.746094 C 258.125 540.984375 258.210938 539.230469 258.382812 537.480469 C 258.558594 535.730469 258.816406 533.992188 259.160156 532.265625 C 259.503906 530.539062 259.929688 528.835938 260.441406 527.152344 C 260.953125 525.46875 261.542969 523.8125 262.21875 522.1875 C 262.890625 520.5625 263.644531 518.972656 264.472656 517.421875 C 265.300781 515.871094 266.207031 514.363281 267.183594 512.902344 C 268.160156 511.4375 269.207031 510.027344 270.324219 508.667969 C 271.441406 507.308594 272.621094 506.003906 273.867188 504.761719 C 275.109375 503.515625 276.414062 502.335938 277.773438 501.222656 C 279.132812 500.105469 280.546875 499.058594 282.007812 498.082031 C 283.472656 497.101562 284.980469 496.199219 286.53125 495.371094 C 288.082031 494.542969 289.671875 493.789062 291.296875 493.117188 C 292.925781 492.445312 294.578125 491.851562 296.261719 491.339844 C 297.945312 490.832031 299.652344 490.402344 301.378906 490.058594 C 303.101562 489.71875 304.84375 489.460938 306.59375 489.285156 C 308.34375 489.113281 310.101562 489.027344 311.859375 489.027344 C 313.621094 489.027344 315.375 489.113281 317.125 489.289062 C 318.878906 489.460938 320.617188 489.71875 322.34375 490.0625 C 324.070312 490.40625 325.773438 490.832031 327.457031 491.34375 C 329.140625 491.855469 330.796875 492.445312 332.421875 493.121094 C 334.050781 493.792969 335.636719 494.546875 337.191406 495.375 C 338.742188 496.207031 340.25 497.109375 341.714844 498.085938 C 343.175781 499.066406 344.589844 500.113281 345.949219 501.226562 C 347.308594 502.34375 348.613281 503.523438 349.855469 504.769531 C 351.101562 506.015625 352.28125 507.316406 353.398438 508.675781 C 354.511719 510.035156 355.5625 511.449219 356.539062 512.910156 C 357.515625 514.375 358.417969 515.882812 359.25 517.433594 C 360.078125 518.988281 360.832031 520.574219 361.503906 522.199219 C 362.175781 523.828125 362.769531 525.480469 363.28125 527.164062 C 363.792969 528.851562 364.21875 530.554688 364.5625 532.28125 C 364.90625 534.007812 365.164062 535.746094 365.335938 537.496094 C 365.507812 539.246094 365.59375 541.003906 365.59375 542.761719 C 365.59375 544.523438 365.507812 546.277344 365.332031 548.03125 C 365.160156 549.78125 364.902344 551.519531 364.554688 553.246094 C 364.210938 554.972656 363.785156 556.679688 363.273438 558.363281 C 362.761719 560.046875 362.167969 561.703125 361.492188 563.328125 C 360.820312 564.953125 360.066406 566.542969 359.238281 568.09375 C 358.40625 569.648438 357.503906 571.15625 356.523438 572.617188 C 355.546875 574.082031 354.5 575.492188 353.382812 576.851562 C 352.265625 578.214844 351.082031 579.515625 349.839844 580.761719 C 348.59375 582.003906 347.289062 583.183594 345.929688 584.300781 C 344.570312 585.417969 343.15625 586.464844 341.691406 587.441406 C 340.230469 588.417969 338.722656 589.324219 337.167969 590.152344 C 335.617188 590.980469 334.027344 591.734375 332.402344 592.40625 C 330.773438 593.082031 329.117188 593.671875 327.433594 594.183594 C 325.75 594.695312 324.042969 595.121094 322.316406 595.464844 C 320.589844 595.808594 318.851562 596.066406 317.101562 596.238281 C 315.347656 596.410156 313.59375 596.496094 311.832031 596.496094 Z M 461.570312 596.496094 C 459.808594 596.496094 458.054688 596.410156 456.300781 596.238281 C 454.550781 596.066406 452.8125 595.808594 451.085938 595.464844 C 449.359375 595.121094 447.65625 594.695312 445.96875 594.183594 C 444.285156 593.671875 442.632812 593.078125 441.003906 592.40625 C 439.378906 591.734375 437.789062 590.980469 436.238281 590.152344 C 434.6875 589.324219 433.179688 588.417969 431.714844 587.441406 C 430.253906 586.464844 428.839844 585.417969 427.480469 584.300781 C 426.121094 583.183594 424.816406 582.003906 423.574219 580.757812 C 422.328125 579.515625 421.148438 578.210938 420.03125 576.851562 C 418.914062 575.492188 417.867188 574.078125 416.890625 572.617188 C 415.914062 571.152344 415.007812 569.644531 414.179688 568.09375 C 413.351562 566.539062 412.597656 564.953125 411.925781 563.324219 C 411.25 561.699219 410.660156 560.042969 410.148438 558.359375 C 409.636719 556.675781 409.210938 554.972656 408.867188 553.246094 C 408.523438 551.519531 408.265625 549.78125 408.09375 548.03125 C 407.921875 546.277344 407.835938 544.523438 407.835938 542.761719 C 407.835938 541.003906 407.921875 539.246094 408.09375 537.496094 C 408.265625 535.742188 408.523438 534.003906 408.867188 532.28125 C 409.210938 530.554688 409.636719 528.847656 410.148438 527.164062 C 410.660156 525.480469 411.25 523.824219 411.925781 522.199219 C 412.597656 520.574219 413.351562 518.984375 414.179688 517.433594 C 415.007812 515.878906 415.914062 514.371094 416.890625 512.910156 C 417.867188 511.445312 418.914062 510.035156 420.03125 508.671875 C 421.148438 507.3125 422.328125 506.011719 423.574219 504.765625 C 424.816406 503.523438 426.121094 502.339844 427.480469 501.226562 C 428.839844 500.109375 430.253906 499.0625 431.714844 498.082031 C 433.179688 497.105469 434.6875 496.203125 436.238281 495.371094 C 437.789062 494.542969 439.378906 493.792969 441.003906 493.117188 C 442.632812 492.445312 444.285156 491.851562 445.96875 491.339844 C 447.65625 490.832031 449.359375 490.402344 451.085938 490.058594 C 452.8125 489.71875 454.550781 489.460938 456.300781 489.285156 C 458.054688 489.113281 459.808594 489.027344 461.570312 489.027344 C 463.328125 489.027344 465.085938 489.113281 466.835938 489.285156 C 468.585938 489.460938 470.324219 489.71875 472.050781 490.058594 C 473.777344 490.402344 475.484375 490.832031 477.167969 491.339844 C 478.851562 491.851562 480.507812 492.445312 482.132812 493.117188 C 483.757812 493.792969 485.347656 494.542969 486.898438 495.371094 C 488.453125 496.203125 489.957031 497.105469 491.421875 498.082031 C 492.886719 499.0625 494.296875 500.109375 495.65625 501.226562 C 497.019531 502.339844 498.320312 503.523438 499.566406 504.765625 C 500.808594 506.011719 501.988281 507.3125 503.105469 508.671875 C 504.222656 510.035156 505.269531 511.445312 506.246094 512.910156 C 507.226562 514.371094 508.128906 515.878906 508.957031 517.433594 C 509.789062 518.984375 510.539062 520.574219 511.214844 522.199219 C 511.886719 523.824219 512.480469 525.480469 512.988281 527.164062 C 513.5 528.847656 513.925781 530.554688 514.269531 532.28125 C 514.613281 534.003906 514.871094 535.746094 515.042969 537.496094 C 515.21875 539.246094 515.304688 541.003906 515.304688 542.761719 C 515.300781 544.523438 515.214844 546.277344 515.042969 548.027344 C 514.867188 549.78125 514.609375 551.519531 514.265625 553.242188 C 513.921875 554.96875 513.496094 556.675781 512.984375 558.359375 C 512.472656 560.042969 511.878906 561.695312 511.207031 563.320312 C 510.53125 564.945312 509.78125 566.535156 508.949219 568.085938 C 508.121094 569.640625 507.21875 571.148438 506.238281 572.609375 C 505.261719 574.074219 504.214844 575.484375 503.097656 576.84375 C 501.980469 578.203125 500.800781 579.507812 499.558594 580.75 C 498.3125 581.996094 497.011719 583.175781 495.652344 584.292969 C 494.289062 585.40625 492.878906 586.453125 491.414062 587.433594 C 489.953125 588.410156 488.445312 589.3125 486.894531 590.144531 C 485.34375 590.972656 483.753906 591.726562 482.128906 592.398438 C 480.503906 593.074219 478.847656 593.664062 477.164062 594.175781 C 475.480469 594.6875 473.777344 595.117188 472.050781 595.460938 C 470.324219 595.804688 468.585938 596.0625 466.835938 596.234375 C 465.082031 596.410156 463.328125 596.496094 461.570312 596.496094 Z M 547.339844 371.644531 C 535.6875 402.3125 523.667969 436.871094 516.566406 451.207031 C 515.726562 452.882812 514.777344 454.496094 513.714844 456.039062 C 512.652344 457.585938 511.488281 459.050781 510.222656 460.433594 C 508.960938 461.820312 507.605469 463.109375 506.160156 464.304688 C 504.71875 465.503906 503.199219 466.59375 501.601562 467.578125 C 500.007812 468.566406 498.351562 469.4375 496.636719 470.195312 C 494.921875 470.949219 493.160156 471.585938 491.359375 472.097656 C 489.554688 472.609375 487.722656 472.996094 485.867188 473.253906 C 484.011719 473.511719 482.144531 473.640625 480.269531 473.640625 L 297.550781 473.640625 C 295.4375 473.640625 293.332031 473.476562 291.242188 473.148438 C 289.152344 472.816406 287.101562 472.328125 285.089844 471.679688 C 283.074219 471.027344 281.125 470.226562 279.238281 469.269531 C 277.347656 468.3125 275.546875 467.21875 273.832031 465.980469 C 272.117188 464.742188 270.507812 463.378906 269.003906 461.890625 C 267.5 460.402344 266.121094 458.804688 264.871094 457.097656 C 263.617188 455.394531 262.503906 453.601562 261.53125 451.722656 C 260.558594 449.84375 259.738281 447.902344 259.070312 445.894531 C 258.925781 445.460938 258.800781 445.023438 258.703125 444.578125 L 217.488281 259.414062 C 217.234375 258.265625 216.929688 257.132812 216.578125 256.011719 C 216.230469 254.886719 215.832031 253.785156 215.386719 252.695312 C 214.941406 251.609375 214.453125 250.539062 213.917969 249.492188 C 213.382812 248.445312 212.804688 247.425781 212.183594 246.425781 C 211.5625 245.429688 210.898438 244.460938 210.195312 243.519531 C 209.492188 242.574219 208.75 241.664062 207.972656 240.785156 C 207.191406 239.90625 206.375 239.0625 205.523438 238.253906 C 204.671875 237.441406 203.789062 236.671875 202.871094 235.933594 C 201.953125 235.199219 201.007812 234.503906 200.03125 233.851562 C 199.054688 233.195312 198.054688 232.582031 197.027344 232.011719 C 195.996094 231.441406 194.949219 230.914062 193.875 230.433594 C 192.804688 229.953125 191.714844 229.515625 190.605469 229.128906 C 189.496094 228.738281 188.371094 228.394531 187.234375 228.101562 C 186.09375 227.808594 184.949219 227.5625 183.789062 227.363281 C 182.628906 227.167969 181.464844 227.019531 180.292969 226.921875 C 179.121094 226.820312 177.949219 226.773438 176.773438 226.773438 L 160.441406 226.773438 C 159.578125 226.773438 158.722656 226.6875 157.875 226.519531 C 157.027344 226.351562 156.207031 226.101562 155.40625 225.773438 C 154.609375 225.441406 153.851562 225.035156 153.132812 224.558594 C 152.417969 224.078125 151.753906 223.53125 151.140625 222.921875 C 150.53125 222.3125 149.984375 221.648438 149.507812 220.929688 C 149.027344 220.210938 148.621094 219.453125 148.289062 218.65625 C 147.960938 217.859375 147.710938 217.035156 147.542969 216.1875 C 147.375 215.339844 147.289062 214.484375 147.289062 213.621094 C 147.265625 213.1875 147.265625 212.75 147.289062 212.3125 C 147.3125 211.875 147.359375 211.441406 147.429688 211.011719 C 147.496094 210.578125 147.585938 210.152344 147.699219 209.730469 C 147.8125 209.308594 147.949219 208.894531 148.105469 208.484375 C 148.261719 208.078125 148.441406 207.679688 148.636719 207.289062 C 148.835938 206.898438 149.054688 206.519531 149.292969 206.15625 C 149.53125 205.789062 149.789062 205.433594 150.0625 205.09375 C 150.339844 204.753906 150.628906 204.429688 150.941406 204.121094 C 151.25 203.8125 151.574219 203.519531 151.914062 203.246094 C 152.253906 202.96875 152.605469 202.714844 152.972656 202.476562 C 153.339844 202.238281 153.71875 202.019531 154.105469 201.820312 C 154.496094 201.621094 154.894531 201.445312 155.300781 201.289062 C 155.710938 201.132812 156.125 200.996094 156.546875 200.882812 C 156.96875 200.769531 157.398438 200.679688 157.828125 200.609375 C 158.261719 200.542969 158.695312 200.496094 159.132812 200.472656 C 159.566406 200.449219 160.003906 200.449219 160.441406 200.472656 L 176.800781 200.472656 C 178.714844 200.472656 180.628906 200.554688 182.539062 200.714844 C 184.445312 200.878906 186.34375 201.121094 188.234375 201.441406 C 190.121094 201.765625 191.992188 202.167969 193.847656 202.648438 C 195.703125 203.128906 197.535156 203.6875 199.339844 204.320312 C 201.148438 204.957031 202.925781 205.667969 204.675781 206.453125 C 206.421875 207.238281 208.132812 208.09375 209.808594 209.023438 C 211.484375 209.957031 213.117188 210.953125 214.707031 212.023438 C 216.296875 213.089844 217.839844 214.222656 219.335938 215.421875 C 220.828125 216.621094 222.269531 217.878906 223.660156 219.199219 C 225.046875 220.519531 226.378906 221.894531 227.652344 223.328125 C 228.921875 224.757812 230.132812 226.242188 231.28125 227.777344 C 232.425781 229.3125 233.507812 230.890625 234.519531 232.519531 C 235.535156 234.144531 236.476562 235.808594 237.351562 237.515625 C 238.222656 239.21875 239.023438 240.960938 239.75 242.730469 C 240.476562 244.503906 241.125 246.304688 241.699219 248.132812 C 242.273438 249.960938 242.769531 251.808594 243.1875 253.679688 C 243.1875 253.679688 284.242188 438.109375 284.296875 438.238281 C 284.554688 438.90625 284.859375 439.546875 285.214844 440.167969 C 285.570312 440.789062 285.96875 441.378906 286.414062 441.9375 C 286.855469 442.496094 287.339844 443.019531 287.863281 443.507812 C 288.382812 443.996094 288.941406 444.441406 289.527344 444.84375 C 290.117188 445.246094 290.734375 445.605469 291.375 445.917969 C 292.019531 446.226562 292.683594 446.488281 293.363281 446.699219 C 294.046875 446.910156 294.742188 447.070312 295.445312 447.179688 C 296.152344 447.285156 296.863281 447.339844 297.578125 447.339844 L 480.269531 447.339844 C 481.59375 447.335938 482.894531 447.15625 484.171875 446.792969 C 485.445312 446.429688 486.648438 445.898438 487.777344 445.203125 C 488.90625 444.507812 489.917969 443.667969 490.8125 442.691406 C 491.710938 441.714844 492.457031 440.632812 493.050781 439.449219 C 499.152344 427.21875 508.832031 399.863281 518.671875 373.195312 C 516.246094 372.949219 513.835938 372.605469 511.4375 372.167969 C 509.039062 371.730469 506.664062 371.195312 504.308594 370.570312 C 501.957031 369.941406 499.628906 369.222656 497.332031 368.410156 C 495.035156 367.597656 492.773438 366.695312 490.546875 365.707031 C 488.320312 364.714844 486.136719 363.636719 483.996094 362.472656 C 481.855469 361.304688 479.765625 360.058594 477.722656 358.726562 C 475.683594 357.398438 473.695312 355.988281 471.765625 354.5 C 469.839844 353.011719 467.96875 351.445312 466.164062 349.808594 C 464.359375 348.171875 462.621094 346.46875 460.953125 344.691406 C 459.28125 342.917969 457.6875 341.078125 456.164062 339.179688 C 454.636719 337.277344 453.191406 335.316406 451.824219 333.300781 C 450.457031 331.285156 449.167969 329.21875 447.964844 327.097656 C 446.761719 324.980469 445.644531 322.816406 444.609375 320.609375 C 443.578125 318.402344 442.636719 316.15625 441.78125 313.875 C 440.925781 311.59375 440.164062 309.28125 439.496094 306.9375 C 438.824219 304.59375 438.25 302.226562 437.765625 299.839844 L 279.273438 299.839844 C 278.40625 299.839844 277.554688 299.753906 276.707031 299.585938 C 275.859375 299.417969 275.035156 299.167969 274.238281 298.839844 C 273.441406 298.507812 272.683594 298.101562 271.964844 297.625 C 271.246094 297.144531 270.582031 296.597656 269.972656 295.988281 C 269.363281 295.378906 268.816406 294.714844 268.335938 293.996094 C 267.855469 293.277344 267.453125 292.519531 267.121094 291.722656 C 266.792969 290.921875 266.542969 290.101562 266.375 289.253906 C 266.203125 288.40625 266.121094 287.550781 266.121094 286.6875 C 266.121094 285.824219 266.203125 284.96875 266.375 284.125 C 266.542969 283.277344 266.792969 282.453125 267.121094 281.65625 C 267.453125 280.859375 267.855469 280.101562 268.335938 279.382812 C 268.816406 278.664062 269.363281 278 269.972656 277.390625 C 270.582031 276.777344 271.246094 276.234375 271.964844 275.753906 C 272.683594 275.273438 273.441406 274.871094 274.238281 274.539062 C 275.035156 274.207031 275.859375 273.960938 276.707031 273.789062 C 277.554688 273.621094 278.40625 273.539062 279.273438 273.539062 L 436.292969 273.539062 C 436.417969 272.132812 436.574219 270.730469 436.761719 269.332031 C 436.949219 267.933594 437.171875 266.542969 437.425781 265.15625 C 437.675781 263.765625 437.960938 262.386719 438.277344 261.011719 C 438.59375 259.636719 438.941406 258.269531 439.320312 256.910156 C 439.699219 255.550781 440.109375 254.203125 440.550781 252.863281 C 440.992188 251.523438 441.464844 250.191406 441.964844 248.875 C 442.46875 247.558594 443 246.25 443.5625 244.957031 C 444.125 243.664062 444.714844 242.382812 445.335938 241.117188 C 445.957031 239.851562 446.605469 238.597656 447.285156 237.363281 C 447.964844 236.125 448.671875 234.902344 449.40625 233.699219 C 450.140625 232.496094 450.902344 231.308594 451.691406 230.140625 C 452.480469 228.96875 453.296875 227.820312 454.136719 226.6875 C 454.980469 225.558594 455.847656 224.445312 456.742188 223.351562 C 457.632812 222.261719 458.550781 221.191406 459.496094 220.140625 C 460.4375 219.089844 461.402344 218.0625 462.394531 217.058594 C 463.382812 216.054688 464.394531 215.070312 465.429688 214.113281 C 466.464844 213.152344 467.519531 212.21875 468.597656 211.308594 C 469.675781 210.398438 470.773438 209.515625 471.894531 208.65625 C 473.011719 207.796875 474.148438 206.960938 475.304688 206.15625 C 476.464844 205.347656 477.636719 204.566406 478.832031 203.8125 C 480.023438 203.058594 481.230469 202.335938 482.457031 201.636719 C 483.683594 200.9375 484.925781 200.269531 486.183594 199.628906 C 487.4375 198.988281 488.710938 198.378906 489.996094 197.796875 C 491.28125 197.210938 492.578125 196.660156 493.886719 196.136719 C 495.199219 195.613281 496.519531 195.121094 497.851562 194.660156 C 499.183594 194.199219 500.527344 193.769531 501.878906 193.367188 C 503.234375 192.96875 504.59375 192.597656 505.964844 192.261719 C 507.335938 191.925781 508.710938 191.617188 510.09375 191.34375 C 511.476562 191.070312 512.867188 190.828125 514.261719 190.617188 C 515.65625 190.40625 517.054688 190.226562 518.460938 190.082031 C 519.863281 189.9375 521.269531 189.824219 522.675781 189.742188 C 524.085938 189.660156 525.492188 189.609375 526.90625 189.59375 C 528.316406 189.578125 529.726562 189.59375 531.136719 189.640625 C 532.546875 189.6875 533.953125 189.769531 535.359375 189.882812 C 536.765625 189.996094 538.167969 190.140625 539.566406 190.316406 C 540.964844 190.496094 542.363281 190.703125 543.75 190.945312 C 545.140625 191.1875 546.523438 191.460938 547.902344 191.765625 C 549.277344 192.070312 550.648438 192.40625 552.011719 192.777344 C 553.371094 193.144531 554.726562 193.542969 556.066406 193.972656 C 557.410156 194.402344 558.746094 194.863281 560.066406 195.355469 C 561.390625 195.847656 562.699219 196.371094 563.996094 196.921875 C 565.296875 197.472656 566.582031 198.054688 567.851562 198.664062 C 569.125 199.277344 570.378906 199.914062 571.621094 200.585938 C 572.863281 201.253906 574.089844 201.949219 575.300781 202.675781 C 576.511719 203.398438 577.703125 204.152344 578.878906 204.929688 C 580.054688 205.710938 581.210938 206.519531 582.351562 207.351562 C 583.488281 208.183594 584.609375 209.042969 585.707031 209.925781 C 586.804688 210.8125 587.882812 211.71875 588.941406 212.65625 C 590 213.589844 591.035156 214.546875 592.046875 215.527344 C 593.058594 216.507812 594.050781 217.511719 595.015625 218.539062 C 595.984375 219.566406 596.925781 220.617188 597.84375 221.6875 C 598.765625 222.757812 599.65625 223.847656 600.527344 224.960938 C 601.394531 226.070312 602.238281 227.203125 603.054688 228.351562 C 603.871094 229.503906 604.660156 230.671875 605.421875 231.859375 C 606.1875 233.042969 606.921875 234.246094 607.628906 235.46875 C 608.335938 236.6875 609.015625 237.925781 609.667969 239.175781 C 610.316406 240.425781 610.9375 241.695312 611.53125 242.972656 C 612.125 244.253906 612.6875 245.546875 613.21875 246.851562 C 613.753906 248.160156 614.257812 249.476562 614.730469 250.804688 C 615.203125 252.132812 615.644531 253.472656 616.054688 254.824219 C 616.464844 256.171875 616.84375 257.53125 617.191406 258.898438 C 617.542969 260.265625 617.859375 261.640625 618.144531 263.019531 C 618.429688 264.402344 618.683594 265.789062 618.90625 267.183594 C 619.125 268.574219 619.316406 269.972656 619.472656 271.375 C 619.628906 272.777344 619.753906 274.179688 619.847656 275.589844 C 619.941406 276.996094 620 278.40625 620.03125 279.816406 C 620.058594 281.226562 620.054688 282.636719 620.015625 284.046875 C 619.980469 285.457031 619.910156 286.867188 619.808594 288.273438 C 619.707031 289.679688 619.574219 291.082031 619.40625 292.484375 C 619.242188 293.886719 619.042969 295.28125 618.8125 296.671875 C 618.582031 298.066406 618.320312 299.449219 618.027344 300.832031 C 617.730469 302.210938 617.40625 303.582031 617.050781 304.945312 C 616.691406 306.3125 616.304688 307.667969 615.882812 309.015625 C 615.464844 310.359375 615.015625 311.699219 614.535156 313.023438 C 614.054688 314.351562 613.542969 315.664062 613 316.96875 C 612.460938 318.269531 611.886719 319.558594 611.289062 320.835938 C 610.6875 322.113281 610.058594 323.375 609.398438 324.621094 C 608.742188 325.867188 608.054688 327.101562 607.339844 328.316406 C 606.625 329.53125 605.878906 330.730469 605.109375 331.914062 C 604.339844 333.09375 603.542969 334.257812 602.71875 335.402344 C 601.894531 336.546875 601.046875 337.675781 600.171875 338.78125 C 599.292969 339.886719 598.394531 340.972656 597.46875 342.035156 C 596.542969 343.101562 595.59375 344.144531 594.621094 345.164062 C 593.648438 346.183594 592.652344 347.183594 591.632812 348.160156 C 590.613281 349.132812 589.570312 350.085938 588.507812 351.011719 C 587.445312 351.941406 586.359375 352.84375 585.257812 353.71875 C 584.152344 354.597656 583.027344 355.449219 581.882812 356.273438 C 580.742188 357.101562 579.578125 357.898438 578.398438 358.671875 C 577.21875 359.445312 576.019531 360.191406 574.804688 360.90625 C 573.589844 361.625 572.359375 362.3125 571.113281 362.972656 C 569.867188 363.636719 568.605469 364.265625 567.332031 364.871094 C 566.058594 365.472656 564.769531 366.046875 563.464844 366.589844 C 562.164062 367.132812 560.851562 367.648438 559.527344 368.128906 C 558.199219 368.613281 556.863281 369.066406 555.519531 369.488281 C 554.171875 369.910156 552.816406 370.300781 551.453125 370.660156 C 550.089844 371.019531 548.71875 371.347656 547.339844 371.644531 Z M 547.339844 371.644531 " fill-opacity="1" fill-rule="evenodd"/></g></svg>