<svg xmlns="http://www.w3.org/2000/svg" xmlns:xlink="http://www.w3.org/1999/xlink" width="1024" zoomAndPan="magnify" viewBox="0 0 768 767.999994" height="1024" preserveAspectRatio="xMidYMid meet" version="1.0"><path fill="#7322c1" d="M 767.933594 383.96875 C 767.738281 595.28125 597.167969 768 383.773438 767.871094 C 171.808594 767.738281 0.0664062 596.644531 0.128906 383.773438 C 0.195312 170.636719 172.65625 0.128906 384.097656 0.0664062 C 595.996094 0 767.933594 172.070312 767.933594 383.96875 Z M 450.347656 468.050781 C 450.347656 420.738281 450.28125 373.488281 450.414062 326.175781 C 450.476562 308.28125 444.101562 293.117188 430.890625 281.335938 C 410.0625 262.726562 385.855469 258.820312 359.886719 267.996094 C 335.09375 276.78125 318.496094 300.601562 318.628906 327.542969 C 319.148438 421.777344 318.886719 516.011719 318.757812 610.246094 C 318.757812 663.484375 364.378906 672.464844 386.179688 672.398438 C 418.980469 672.269531 451.195312 645.847656 450.542969 607.90625 C 449.699219 561.308594 450.347656 514.648438 450.347656 468.050781 Z M 454.839844 165.691406 C 454.773438 126.382812 423.40625 95.082031 384.03125 95.082031 C 344.59375 95.082031 313.097656 126.644531 313.160156 166.082031 C 313.226562 205.066406 345.050781 236.824219 384.097656 236.824219 C 423.40625 236.824219 454.839844 205.195312 454.839844 165.691406 Z M 454.839844 165.691406 " fill-opacity="1" fill-rule="nonzero"/></svg>