<svg xmlns="http://www.w3.org/2000/svg" xmlns:xlink="http://www.w3.org/1999/xlink" width="1024" zoomAndPan="magnify" viewBox="0 0 768 767.999994" height="1024" preserveAspectRatio="xMidYMid meet" version="1.0"><path fill="#333333" d="M 384 768 C 390.285156 768 396.566406 767.847656 402.84375 767.539062 C 409.117188 767.230469 415.382812 766.765625 421.636719 766.152344 C 427.894531 765.535156 434.128906 764.765625 440.34375 763.84375 C 446.5625 762.921875 452.75 761.847656 458.914062 760.621094 C 465.078125 759.394531 471.207031 758.019531 477.304688 756.492188 C 483.402344 754.964844 489.457031 753.289062 495.46875 751.464844 C 501.484375 749.640625 507.449219 747.671875 513.367188 745.554688 C 519.28125 743.4375 525.144531 741.175781 530.949219 738.769531 C 536.757812 736.363281 542.5 733.820312 548.179688 731.132812 C 553.863281 728.445312 559.472656 725.621094 565.015625 722.65625 C 570.558594 719.695312 576.023438 716.597656 581.414062 713.367188 C 586.804688 710.136719 592.113281 706.777344 597.339844 703.285156 C 602.5625 699.792969 607.699219 696.175781 612.75 692.433594 C 617.796875 688.6875 622.75 684.824219 627.605469 680.835938 C 632.464844 676.847656 637.222656 672.746094 641.878906 668.523438 C 646.535156 664.304688 651.085938 659.972656 655.527344 655.527344 C 659.972656 651.085938 664.304688 646.535156 668.523438 641.878906 C 672.746094 637.222656 676.847656 632.464844 680.835938 627.605469 C 684.824219 622.75 688.6875 617.796875 692.433594 612.75 C 696.175781 607.699219 699.792969 602.5625 703.285156 597.339844 C 706.777344 592.113281 710.136719 586.804688 713.367188 581.414062 C 716.597656 576.023438 719.695312 570.558594 722.65625 565.015625 C 725.621094 559.472656 728.445312 553.863281 731.132812 548.179688 C 733.820312 542.5 736.363281 536.757812 738.769531 530.949219 C 741.175781 525.144531 743.4375 519.28125 745.554688 513.367188 C 747.671875 507.449219 749.640625 501.484375 751.464844 495.46875 C 753.289062 489.457031 754.964844 483.402344 756.492188 477.304688 C 758.019531 471.207031 759.394531 465.078125 760.621094 458.914062 C 761.847656 452.75 762.921875 446.5625 763.84375 440.34375 C 764.765625 434.128906 765.535156 427.894531 766.152344 421.636719 C 766.765625 415.382812 767.230469 409.117188 767.539062 402.84375 C 767.847656 396.566406 768 390.285156 768 384 C 768 377.714844 767.847656 371.433594 767.539062 365.15625 C 767.230469 358.882812 766.765625 352.617188 766.152344 346.363281 C 765.535156 340.105469 764.765625 333.871094 763.84375 327.65625 C 762.921875 321.4375 761.847656 315.25 760.621094 309.085938 C 759.394531 302.921875 758.019531 296.792969 756.492188 290.695312 C 754.964844 284.597656 753.289062 278.542969 751.464844 272.53125 C 749.640625 266.515625 747.671875 260.550781 745.554688 254.632812 C 743.4375 248.71875 741.175781 242.855469 738.769531 237.050781 C 736.363281 231.242188 733.820312 225.5 731.132812 219.820312 C 728.445312 214.136719 725.621094 208.527344 722.65625 202.984375 C 719.695312 197.441406 716.597656 191.976562 713.367188 186.585938 C 710.136719 181.195312 706.777344 175.886719 703.285156 170.660156 C 699.792969 165.4375 696.175781 160.300781 692.433594 155.25 C 688.6875 150.203125 684.824219 145.25 680.835938 140.394531 C 676.847656 135.535156 672.746094 130.777344 668.523438 126.121094 C 664.304688 121.464844 659.972656 116.914062 655.527344 112.472656 C 651.085938 108.027344 646.535156 103.695312 641.878906 99.476562 C 637.222656 95.253906 632.464844 91.152344 627.605469 87.164062 C 622.75 83.175781 617.796875 79.3125 612.75 75.566406 C 607.699219 71.824219 602.5625 68.207031 597.339844 64.714844 C 592.113281 61.222656 586.804688 57.863281 581.414062 54.632812 C 576.023438 51.402344 570.558594 48.304688 565.015625 45.34375 C 559.472656 42.378906 553.863281 39.554688 548.179688 36.867188 C 542.5 34.179688 536.757812 31.636719 530.949219 29.230469 C 525.144531 26.824219 519.28125 24.5625 513.367188 22.445312 C 507.449219 20.328125 501.484375 18.359375 495.46875 16.535156 C 489.457031 14.710938 483.402344 13.035156 477.304688 11.507812 C 471.207031 9.980469 465.078125 8.605469 458.914062 7.378906 C 452.75 6.152344 446.5625 5.078125 440.34375 4.15625 C 434.128906 3.234375 427.894531 2.464844 421.636719 1.847656 C 415.382812 1.234375 409.117188 0.769531 402.84375 0.460938 C 396.566406 0.152344 390.285156 0 384 0 C 377.714844 0 371.433594 0.152344 365.15625 0.460938 C 358.882812 0.769531 352.617188 1.234375 346.363281 1.847656 C 340.105469 2.464844 333.871094 3.234375 327.65625 4.15625 C 321.4375 5.078125 315.25 6.152344 309.085938 7.378906 C 302.921875 8.605469 296.792969 9.980469 290.695312 11.507812 C 284.597656 13.035156 278.542969 14.710938 272.53125 16.535156 C 266.515625 18.359375 260.550781 20.328125 254.632812 22.445312 C 248.71875 24.5625 242.855469 26.824219 237.050781 29.230469 C 231.242188 31.636719 225.5 34.179688 219.820312 36.867188 C 214.136719 39.554688 208.527344 42.378906 202.984375 45.34375 C 197.441406 48.304688 191.976562 51.402344 186.585938 54.632812 C 181.195312 57.863281 175.886719 61.222656 170.660156 64.714844 C 165.4375 68.207031 160.300781 71.824219 155.25 75.566406 C 150.203125 79.3125 145.25 83.175781 140.394531 87.164062 C 135.535156 91.152344 130.777344 95.253906 126.121094 99.476562 C 121.464844 103.695312 116.914062 108.027344 112.472656 112.472656 C 108.027344 116.914062 103.695312 121.464844 99.476562 126.121094 C 95.253906 130.777344 91.152344 135.535156 87.164062 140.394531 C 83.175781 145.25 79.3125 150.203125 75.566406 155.25 C 71.824219 160.300781 68.207031 165.4375 64.714844 170.660156 C 61.222656 175.886719 57.863281 181.195312 54.632812 186.585938 C 51.402344 191.976562 48.304688 197.441406 45.34375 202.984375 C 42.378906 208.527344 39.554688 214.136719 36.867188 219.820312 C 34.179688 225.5 31.636719 231.242188 29.230469 237.050781 C 26.824219 242.855469 24.5625 248.71875 22.445312 254.632812 C 20.328125 260.550781 18.359375 266.515625 16.535156 272.53125 C 14.710938 278.542969 13.035156 284.597656 11.507812 290.695312 C 9.980469 296.792969 8.605469 302.921875 7.378906 309.085938 C 6.152344 315.25 5.078125 321.4375 4.15625 327.65625 C 3.234375 333.871094 2.464844 340.105469 1.847656 346.363281 C 1.234375 352.617188 0.769531 358.882812 0.460938 365.15625 C 0.152344 371.433594 0 377.714844 0 384 C 0 390.285156 0.152344 396.566406 0.460938 402.84375 C 0.769531 409.117188 1.234375 415.382812 1.847656 421.636719 C 2.464844 427.894531 3.234375 434.128906 4.15625 440.34375 C 5.078125 446.5625 6.152344 452.75 7.378906 458.914062 C 8.605469 465.078125 9.980469 471.207031 11.507812 477.304688 C 13.035156 483.402344 14.710938 489.457031 16.535156 495.46875 C 18.359375 501.484375 20.328125 507.449219 22.445312 513.367188 C 24.5625 519.28125 26.824219 525.144531 29.230469 530.949219 C 31.636719 536.757812 34.179688 542.5 36.867188 548.179688 C 39.554688 553.863281 42.378906 559.472656 45.34375 565.015625 C 48.304688 570.558594 51.402344 576.023438 54.632812 581.414062 C 57.863281 586.804688 61.222656 592.113281 64.714844 597.339844 C 68.207031 602.5625 71.824219 607.699219 75.566406 612.75 C 79.3125 617.796875 83.175781 622.75 87.164062 627.605469 C 91.152344 632.464844 95.253906 637.222656 99.476562 641.878906 C 103.695312 646.535156 108.027344 651.085938 112.472656 655.527344 C 116.914062 659.972656 121.464844 664.304688 126.121094 668.523438 C 130.777344 672.746094 135.535156 676.847656 140.394531 680.835938 C 145.25 684.824219 150.203125 688.6875 155.25 692.433594 C 160.300781 696.175781 165.4375 699.792969 170.660156 703.285156 C 175.886719 706.777344 181.195312 710.136719 186.585938 713.367188 C 191.976562 716.597656 197.441406 719.695312 202.984375 722.65625 C 208.527344 725.621094 214.136719 728.445312 219.820312 731.132812 C 225.5 733.820312 231.242188 736.363281 237.050781 738.769531 C 242.855469 741.175781 248.71875 743.4375 254.632812 745.554688 C 260.550781 747.671875 266.515625 749.640625 272.53125 751.464844 C 278.542969 753.289062 284.597656 754.964844 290.695312 756.492188 C 296.792969 758.019531 302.921875 759.394531 309.085938 760.621094 C 315.25 761.847656 321.4375 762.921875 327.65625 763.84375 C 333.871094 764.765625 340.105469 765.535156 346.363281 766.152344 C 352.617188 766.765625 358.882812 767.230469 365.15625 767.539062 C 371.433594 767.847656 377.714844 768 384 768 Z M 383.3125 110.8125 C 385.558594 110.8125 387.800781 110.867188 390.042969 110.976562 C 392.285156 111.085938 394.523438 111.25 396.757812 111.472656 C 398.988281 111.691406 401.21875 111.964844 403.4375 112.296875 C 405.65625 112.625 407.867188 113.007812 410.070312 113.445312 C 412.269531 113.882812 414.460938 114.375 416.636719 114.921875 C 418.816406 115.46875 420.976562 116.066406 423.125 116.71875 C 425.273438 117.367188 427.402344 118.070312 429.515625 118.828125 C 431.628906 119.585938 433.722656 120.390625 435.796875 121.25 C 437.871094 122.109375 439.921875 123.019531 441.949219 123.980469 C 443.980469 124.9375 445.984375 125.945312 447.964844 127.003906 C 449.941406 128.0625 451.894531 129.167969 453.820312 130.324219 C 455.746094 131.476562 457.640625 132.675781 459.507812 133.925781 C 461.371094 135.171875 463.207031 136.464844 465.011719 137.800781 C 466.8125 139.136719 468.582031 140.519531 470.316406 141.941406 C 472.050781 143.367188 473.75 144.832031 475.414062 146.339844 C 477.078125 147.84375 478.703125 149.394531 480.289062 150.980469 C 481.875 152.566406 483.421875 154.191406 484.929688 155.855469 C 486.4375 157.519531 487.902344 159.21875 489.328125 160.953125 C 490.75 162.6875 492.132812 164.457031 493.46875 166.257812 C 494.804688 168.0625 496.097656 169.894531 497.34375 171.761719 C 498.589844 173.628906 499.792969 175.523438 500.945312 177.449219 C 502.097656 179.375 503.207031 181.328125 504.261719 183.304688 C 505.320312 185.285156 506.332031 187.289062 507.289062 189.316406 C 508.25 191.347656 509.160156 193.398438 510.019531 195.472656 C 510.875 197.546875 511.683594 199.640625 512.441406 201.753906 C 513.195312 203.867188 513.898438 205.996094 514.550781 208.144531 C 515.203125 210.292969 515.800781 212.453125 516.347656 214.632812 C 516.890625 216.808594 517.382812 218.996094 517.820312 221.199219 C 518.261719 223.398438 518.644531 225.609375 518.972656 227.832031 C 519.300781 230.050781 519.578125 232.277344 519.796875 234.511719 C 520.015625 236.746094 520.183594 238.984375 520.292969 241.226562 C 520.402344 243.464844 520.457031 245.710938 520.457031 247.953125 C 520.457031 250.199219 520.402344 252.441406 520.292969 254.683594 C 520.183594 256.925781 520.015625 259.164062 519.796875 261.398438 C 519.578125 263.628906 519.300781 265.855469 518.972656 268.078125 C 518.644531 270.296875 518.261719 272.507812 517.820312 274.710938 C 517.382812 276.910156 516.890625 279.101562 516.347656 281.277344 C 515.800781 283.453125 515.203125 285.617188 514.550781 287.765625 C 513.898438 289.914062 513.195312 292.042969 512.441406 294.15625 C 511.683594 296.269531 510.875 298.363281 510.019531 300.4375 C 509.160156 302.511719 508.25 304.5625 507.289062 306.589844 C 506.332031 308.621094 505.320312 310.625 504.261719 312.601562 C 503.207031 314.582031 502.097656 316.535156 500.945312 318.460938 C 499.792969 320.386719 498.589844 322.28125 497.34375 324.148438 C 496.097656 326.011719 494.804688 327.847656 493.46875 329.648438 C 492.132812 331.453125 490.75 333.222656 489.328125 334.957031 C 487.902344 336.691406 486.4375 338.390625 484.929688 340.054688 C 483.421875 341.71875 481.875 343.34375 480.289062 344.929688 C 478.703125 346.515625 477.078125 348.0625 475.414062 349.570312 C 473.75 351.078125 472.050781 352.542969 470.316406 353.96875 C 468.582031 355.390625 466.8125 356.769531 465.011719 358.109375 C 463.207031 359.445312 461.371094 360.738281 459.507812 361.984375 C 457.640625 363.230469 455.746094 364.433594 453.820312 365.585938 C 451.894531 366.738281 449.941406 367.84375 447.960938 368.902344 C 445.984375 369.960938 443.980469 370.96875 441.949219 371.929688 C 439.921875 372.890625 437.871094 373.796875 435.796875 374.65625 C 433.722656 375.515625 431.628906 376.324219 429.515625 377.082031 C 427.402344 377.835938 425.273438 378.539062 423.125 379.191406 C 420.976562 379.84375 418.8125 380.441406 416.636719 380.988281 C 414.460938 381.53125 412.269531 382.023438 410.070312 382.460938 C 407.867188 382.898438 405.65625 383.285156 403.4375 383.613281 C 401.21875 383.941406 398.992188 384.21875 396.757812 384.4375 C 394.523438 384.65625 392.285156 384.820312 390.042969 384.933594 C 387.800781 385.042969 385.558594 385.097656 383.3125 385.097656 C 381.070312 385.097656 378.828125 385.042969 376.585938 384.933594 C 374.34375 384.820312 372.105469 384.65625 369.871094 384.4375 C 367.636719 384.21875 365.410156 383.941406 363.191406 383.613281 C 360.972656 383.285156 358.761719 382.898438 356.558594 382.460938 C 354.359375 382.023438 352.167969 381.53125 349.992188 380.988281 C 347.8125 380.441406 345.652344 379.84375 343.503906 379.191406 C 341.355469 378.539062 339.226562 377.835938 337.113281 377.082031 C 335 376.324219 332.90625 375.515625 330.832031 374.65625 C 328.757812 373.796875 326.707031 372.890625 324.679688 371.929688 C 322.648438 370.96875 320.644531 369.960938 318.664062 368.902344 C 316.6875 367.84375 314.734375 366.738281 312.808594 365.585938 C 310.882812 364.433594 308.988281 363.230469 307.121094 361.984375 C 305.253906 360.738281 303.421875 359.445312 301.617188 358.109375 C 299.816406 356.769531 298.046875 355.390625 296.3125 353.96875 C 294.578125 352.542969 292.878906 351.078125 291.214844 349.570312 C 289.550781 348.0625 287.925781 346.515625 286.339844 344.929688 C 284.753906 343.34375 283.207031 341.71875 281.699219 340.054688 C 280.191406 338.390625 278.726562 336.691406 277.300781 334.957031 C 275.878906 333.222656 274.496094 331.453125 273.160156 329.648438 C 271.824219 327.847656 270.53125 326.011719 269.285156 324.148438 C 268.039062 322.28125 266.835938 320.386719 265.683594 318.460938 C 264.527344 316.535156 263.421875 314.582031 262.363281 312.601562 C 261.308594 310.625 260.296875 308.621094 259.339844 306.589844 C 258.378906 304.5625 257.46875 302.511719 256.609375 300.4375 C 255.75 298.363281 254.945312 296.269531 254.1875 294.15625 C 253.433594 292.042969 252.726562 289.914062 252.078125 287.765625 C 251.425781 285.617188 250.828125 283.453125 250.28125 281.277344 C 249.734375 279.101562 249.246094 276.910156 248.804688 274.710938 C 248.367188 272.507812 247.984375 270.296875 247.65625 268.078125 C 247.328125 265.855469 247.050781 263.628906 246.832031 261.398438 C 246.613281 259.164062 246.445312 256.925781 246.335938 254.683594 C 246.226562 252.441406 246.171875 250.199219 246.171875 247.953125 C 246.171875 245.710938 246.226562 243.464844 246.335938 241.226562 C 246.445312 238.984375 246.613281 236.746094 246.832031 234.511719 C 247.050781 232.277344 247.328125 230.050781 247.65625 227.832031 C 247.984375 225.609375 248.367188 223.402344 248.804688 221.199219 C 249.246094 218.996094 249.734375 216.808594 250.28125 214.632812 C 250.828125 212.453125 251.425781 210.292969 252.078125 208.144531 C 252.726562 205.996094 253.433594 203.867188 254.1875 201.753906 C 254.945312 199.640625 255.75 197.546875 256.609375 195.472656 C 257.46875 193.398438 258.378906 191.347656 259.339844 189.316406 C 260.296875 187.289062 261.308594 185.285156 262.363281 183.304688 C 263.421875 181.328125 264.527344 179.375 265.683594 177.449219 C 266.835938 175.523438 268.039062 173.628906 269.285156 171.761719 C 270.53125 169.894531 271.824219 168.0625 273.160156 166.257812 C 274.496094 164.457031 275.878906 162.6875 277.300781 160.953125 C 278.726562 159.21875 280.191406 157.519531 281.699219 155.855469 C 283.207031 154.191406 284.753906 152.566406 286.339844 150.980469 C 287.925781 149.394531 289.550781 147.84375 291.214844 146.339844 C 292.878906 144.832031 294.578125 143.367188 296.3125 141.941406 C 298.046875 140.519531 299.816406 139.136719 301.617188 137.800781 C 303.421875 136.464844 305.253906 135.171875 307.121094 133.925781 C 308.988281 132.675781 310.882812 131.476562 312.808594 130.324219 C 314.734375 129.167969 316.6875 128.0625 318.664062 127.003906 C 320.644531 125.945312 322.648438 124.9375 324.679688 123.980469 C 326.707031 123.019531 328.757812 122.109375 330.832031 121.25 C 332.90625 120.390625 335 119.585938 337.113281 118.828125 C 339.226562 118.070312 341.355469 117.367188 343.503906 116.71875 C 345.652344 116.066406 347.8125 115.46875 349.992188 114.921875 C 352.167969 114.375 354.359375 113.882812 356.558594 113.445312 C 358.761719 113.007812 360.972656 112.625 363.191406 112.296875 C 365.410156 111.964844 367.636719 111.691406 369.871094 111.472656 C 372.105469 111.25 374.34375 111.085938 376.585938 110.976562 C 378.828125 110.867188 381.070312 110.8125 383.3125 110.8125 Z M 205.027344 504.960938 C 208.105469 502.28125 211.242188 499.667969 214.4375 497.128906 C 217.628906 494.589844 220.878906 492.121094 224.183594 489.726562 C 227.488281 487.332031 230.847656 485.015625 234.253906 482.769531 C 237.664062 480.527344 241.121094 478.359375 244.625 476.269531 C 248.132812 474.179688 251.683594 472.171875 255.277344 470.242188 C 258.875 468.3125 262.511719 466.460938 266.191406 464.695312 C 269.867188 462.929688 273.585938 461.246094 277.339844 459.644531 C 281.09375 458.042969 284.878906 456.527344 288.703125 455.097656 C 292.523438 453.664062 296.375 452.320312 300.257812 451.0625 C 304.140625 449.804688 308.046875 448.632812 311.984375 447.546875 C 315.917969 446.464844 319.875 445.46875 323.855469 444.5625 C 327.832031 443.65625 331.832031 442.839844 335.847656 442.113281 C 339.863281 441.386719 343.890625 440.75 347.9375 440.203125 C 351.980469 439.65625 356.035156 439.199219 360.097656 438.835938 C 364.164062 438.46875 368.234375 438.195312 372.3125 438.015625 C 376.386719 437.832031 380.46875 437.738281 384.546875 437.738281 C 388.628906 437.738281 392.707031 437.832031 396.785156 438.015625 C 400.863281 438.195312 404.933594 438.46875 408.996094 438.835938 C 413.0625 439.199219 417.117188 439.65625 421.160156 440.203125 C 425.207031 440.75 429.234375 441.386719 433.25 442.113281 C 437.265625 442.839844 441.265625 443.65625 445.242188 444.5625 C 449.222656 445.46875 453.179688 446.464844 457.113281 447.546875 C 461.046875 448.632812 464.957031 449.804688 468.839844 451.0625 C 472.722656 452.320312 476.574219 453.664062 480.394531 455.097656 C 484.214844 456.527344 488.003906 458.042969 491.757812 459.644531 C 495.511719 461.246094 499.230469 462.929688 502.90625 464.695312 C 506.585938 466.460938 510.222656 468.3125 513.820312 470.242188 C 517.414062 472.171875 520.964844 474.179688 524.472656 476.269531 C 527.976562 478.359375 531.433594 480.527344 534.84375 482.769531 C 538.25 485.015625 541.609375 487.332031 544.914062 489.726562 C 548.21875 492.121094 551.46875 494.589844 554.660156 497.128906 C 557.855469 499.667969 560.992188 502.28125 564.070312 504.960938 C 564.824219 505.621094 565.566406 506.300781 566.285156 507 C 567.007812 507.699219 567.710938 508.417969 568.390625 509.15625 C 569.074219 509.894531 569.738281 510.648438 570.378906 511.421875 C 571.023438 512.195312 571.644531 512.984375 572.246094 513.792969 C 572.84375 514.597656 573.421875 515.417969 573.980469 516.253906 C 574.535156 517.09375 575.070312 517.945312 575.582031 518.808594 C 576.09375 519.675781 576.578125 520.550781 577.042969 521.445312 C 577.507812 522.335938 577.949219 523.238281 578.363281 524.152344 C 578.78125 525.066406 579.171875 525.992188 579.539062 526.929688 C 579.90625 527.863281 580.246094 528.808594 580.5625 529.765625 C 580.878906 530.71875 581.167969 531.679688 581.433594 532.648438 C 581.699219 533.617188 581.9375 534.59375 582.152344 535.578125 C 582.363281 536.558594 582.550781 537.546875 582.710938 538.539062 C 582.871094 539.53125 583.003906 540.527344 583.113281 541.527344 C 583.21875 542.523438 583.300781 543.527344 583.351562 544.53125 C 583.40625 545.535156 583.433594 546.539062 583.433594 547.542969 C 583.433594 548.546875 583.40625 549.550781 583.351562 550.554688 C 583.300781 551.558594 583.21875 552.5625 583.113281 553.558594 C 583.003906 554.558594 582.871094 555.554688 582.710938 556.546875 C 582.550781 557.539062 582.363281 558.527344 582.152344 559.507812 C 581.9375 560.492188 581.699219 561.46875 581.433594 562.4375 C 581.167969 563.40625 580.878906 564.367188 580.5625 565.320312 C 580.246094 566.277344 579.90625 567.21875 579.539062 568.15625 C 579.171875 569.09375 578.78125 570.015625 578.363281 570.933594 C 577.949219 571.847656 577.507812 572.75 577.042969 573.640625 C 576.578125 574.53125 576.09375 575.410156 575.582031 576.277344 C 575.070312 577.140625 574.535156 577.992188 573.980469 578.832031 C 573.421875 579.667969 572.84375 580.488281 572.246094 581.292969 C 571.644531 582.101562 571.023438 582.890625 570.378906 583.664062 C 569.738281 584.4375 569.074219 585.191406 568.390625 585.929688 C 567.710938 586.664062 567.007812 587.382812 566.285156 588.085938 C 565.566406 588.785156 564.824219 589.464844 564.070312 590.125 C 560.992188 592.804688 557.855469 595.417969 554.660156 597.957031 C 551.46875 600.496094 548.21875 602.964844 544.914062 605.359375 C 541.609375 607.753906 538.25 610.070312 534.84375 612.316406 C 531.433594 614.558594 527.976562 616.726562 524.472656 618.816406 C 520.964844 620.902344 517.414062 622.914062 513.820312 624.84375 C 510.222656 626.773438 506.585938 628.621094 502.90625 630.390625 C 499.230469 632.15625 495.511719 633.839844 491.757812 635.441406 C 488.003906 637.042969 484.214844 638.558594 480.394531 639.988281 C 476.574219 641.421875 472.722656 642.765625 468.839844 644.023438 C 464.957031 645.28125 461.046875 646.453125 457.113281 647.535156 C 453.179688 648.621094 449.222656 649.617188 445.242188 650.523438 C 441.265625 651.429688 437.265625 652.246094 433.25 652.972656 C 429.234375 653.699219 425.207031 654.335938 421.160156 654.882812 C 417.117188 655.429688 413.0625 655.886719 408.996094 656.25 C 404.933594 656.617188 400.863281 656.890625 396.785156 657.070312 C 392.707031 657.253906 388.628906 657.347656 384.546875 657.347656 C 380.46875 657.347656 376.386719 657.253906 372.3125 657.070312 C 368.234375 656.890625 364.164062 656.617188 360.097656 656.25 C 356.035156 655.886719 351.980469 655.429688 347.9375 654.882812 C 343.890625 654.335938 339.863281 653.699219 335.847656 652.972656 C 331.832031 652.246094 327.832031 651.429688 323.855469 650.523438 C 319.875 649.617188 315.917969 648.621094 311.984375 647.539062 C 308.046875 646.453125 304.140625 645.28125 300.257812 644.023438 C 296.375 642.765625 292.523438 641.421875 288.703125 639.988281 C 284.878906 638.558594 281.09375 637.042969 277.339844 635.441406 C 273.585938 633.839844 269.867188 632.15625 266.191406 630.390625 C 262.511719 628.621094 258.875 626.773438 255.277344 624.84375 C 251.683594 622.914062 248.132812 620.902344 244.625 618.816406 C 241.121094 616.726562 237.664062 614.558594 234.253906 612.316406 C 230.847656 610.070312 227.488281 607.753906 224.183594 605.359375 C 220.878906 602.964844 217.628906 600.496094 214.4375 597.957031 C 211.242188 595.417969 208.105469 592.804688 205.027344 590.125 C 204.265625 589.46875 203.523438 588.792969 202.796875 588.097656 C 202.070312 587.402344 201.367188 586.691406 200.675781 585.957031 C 199.988281 585.222656 199.324219 584.472656 198.675781 583.703125 C 198.027344 582.933594 197.402344 582.148438 196.796875 581.347656 C 196.191406 580.546875 195.605469 579.726562 195.042969 578.894531 C 194.484375 578.0625 193.941406 577.214844 193.425781 576.351562 C 192.910156 575.488281 192.417969 574.613281 191.945312 573.726562 C 191.476562 572.835938 191.03125 571.9375 190.609375 571.023438 C 190.1875 570.113281 189.789062 569.191406 189.417969 568.257812 C 189.042969 567.324219 188.695312 566.378906 188.375 565.429688 C 188.050781 564.476562 187.753906 563.515625 187.484375 562.546875 C 187.210938 561.582031 186.96875 560.605469 186.75 559.625 C 186.527344 558.644531 186.335938 557.660156 186.167969 556.667969 C 186.003906 555.675781 185.863281 554.679688 185.75 553.683594 C 185.636719 552.683594 185.550781 551.683594 185.488281 550.679688 C 185.429688 549.675781 185.394531 548.671875 185.390625 547.667969 C 185.382812 546.664062 185.402344 545.65625 185.449219 544.652344 C 185.496094 543.648438 185.570312 542.648438 185.671875 541.648438 C 185.773438 540.648438 185.898438 539.652344 186.054688 538.660156 C 186.207031 537.664062 186.386719 536.675781 186.59375 535.691406 C 186.800781 534.710938 187.03125 533.730469 187.292969 532.761719 C 187.550781 531.789062 187.835938 530.828125 188.144531 529.871094 C 188.457031 528.914062 188.789062 527.96875 189.152344 527.027344 C 189.511719 526.089844 189.898438 525.164062 190.308594 524.246094 C 190.71875 523.328125 191.152344 522.421875 191.609375 521.527344 C 192.070312 520.632812 192.550781 519.75 193.054688 518.882812 C 193.5625 518.015625 194.089844 517.160156 194.640625 516.320312 C 195.191406 515.480469 195.765625 514.652344 196.359375 513.84375 C 196.957031 513.035156 197.574219 512.242188 198.210938 511.464844 C 198.847656 510.6875 199.503906 509.925781 200.183594 509.183594 C 200.859375 508.441406 201.558594 507.71875 202.273438 507.015625 C 202.992188 506.3125 203.726562 505.625 204.480469 504.960938 Z M 205.027344 504.960938 " fill-opacity="1" fill-rule="nonzero"/></svg>