<svg xmlns="http://www.w3.org/2000/svg" xmlns:xlink="http://www.w3.org/1999/xlink"    zoomAndPan="magnify" viewBox="0 0 768 767.999994"   preserveAspectRatio="xMidYMid meet" version="1.0"><defs><clipPath id="id1"><path d="M 231.449219 230.398438 L 536.996094 230.398438 L 536.996094 537.753906 L 231.449219 537.753906 Z M 231.449219 230.398438 " clip-rule="nonzero"/></clipPath></defs><g clip-path="url(#id1)"><path fill="#000000" d="M 384.320312 452.136719 C 394.167969 452.273438 402.078125 460.375 401.96875 470.222656 C 401.96875 470.414062 401.96875 470.605469 401.96875 470.769531 C 402.378906 480.648438 394.773438 488.992188 384.894531 489.433594 C 375.042969 489.871094 366.644531 482.234375 366.234375 472.359375 C 366.179688 471.839844 366.179688 471.320312 366.234375 470.769531 C 365.796875 460.921875 373.457031 452.574219 383.335938 452.164062 C 383.664062 452.136719 383.964844 452.136719 384.320312 452.136719 Z M 383.445312 287.449219 C 383.882812 287.421875 384.347656 287.421875 384.785156 287.449219 C 395.839844 287.777344 404.511719 297.023438 404.210938 308.078125 C 404.210938 308.269531 404.15625 308.488281 404.15625 308.679688 L 398 415.636719 L 397.945312 415.636719 C 397.371094 423.246094 390.695312 428.878906 383.0625 428.277344 C 376.355469 427.730469 370.996094 422.394531 370.449219 415.636719 L 364.179688 308.679688 C 363.496094 297.65625 371.925781 288.160156 382.953125 287.476562 C 383.144531 287.476562 383.335938 287.449219 383.554688 287.449219 Z M 380.296875 230.453125 C 297.253906 232.589844 231.148438 300.691406 231.449219 383.761719 C 230.765625 468.144531 298.597656 537.066406 382.980469 537.753906 C 467.363281 538.4375 536.3125 470.578125 536.996094 386.222656 C 536.996094 385.402344 536.996094 384.582031 536.996094 383.761719 C 537.324219 299.40625 469.140625 230.726562 384.8125 230.425781 C 383.335938 230.398438 381.828125 230.425781 380.351562 230.453125 L 380.296875 230.453125 " fill-opacity="1" fill-rule="nonzero"/></g></svg>